<svg width="95" height="87" viewBox="0 0 95 87" fill="none" xmlns="http://www.w3.org/2000/svg">
<path d="M80.1758 42.8722C77.4903 42.8722 75.3418 40.6749 75.3418 38.0382C75.3418 35.3527 77.4903 33.1554 80.1758 33.1554C82.8614 33.1554 85.0098 35.3527 85.0098 38.0382C85.0098 40.6749 82.8614 42.8722 80.1758 42.8722ZM12.4512 86.5246H82.4707C90.7714 86.5246 94.9224 82.423 94.9224 74.2198V34.2784C94.9224 26.0753 90.7714 22.0226 82.4707 22.0226H71.6797C68.7012 22.0226 67.7735 21.2901 66.1133 19.4835L63.1348 16.1144C61.2305 14.0636 59.1797 12.7941 55.1758 12.7941H39.6973C35.6446 12.7941 33.5938 14.0636 31.7383 16.1144L28.711 19.4835C27.0996 21.2901 26.1231 22.0226 23.1934 22.0226H12.4512C4.15038 22.0226 0 26.0753 0 34.2784V74.2198C0 82.423 4.15038 86.5246 12.4512 86.5246ZM47.461 74.8058C35.9375 74.8058 26.6602 65.5773 26.6602 54.005C26.6602 42.3839 35.9375 33.1554 47.461 33.1554C58.9844 33.1554 68.2129 42.3839 68.2129 54.005C68.2129 65.5773 58.9844 74.8058 47.461 74.8058ZM47.461 68.214C55.3223 68.214 61.6699 61.9151 61.6699 54.005C61.6699 46.0948 55.3223 39.7472 47.461 39.7472C39.5996 39.7472 33.2032 46.0948 33.2032 54.005C33.2032 61.9151 39.6485 68.214 47.461 68.214Z" fill="black"/>
<path d="M5.02928 6.15338L15.918 15.2355C16.7481 15.8702 17.5782 16.4073 18.5059 16.4073C19.4824 16.4073 20.3125 15.8702 21.0938 15.2355L31.9824 6.15338C35.5469 3.17488 31.3965 -2.44032 27.3438 1.17298L18.5059 9.03428L9.71678 1.17298C5.61528 -2.44032 1.46488 3.17488 5.02928 6.15338Z" fill="black"/>
</svg>
