<?xml version="1.0" ?>
<svg xmlns="http://www.w3.org/2000/svg" xmlns:ev="http://www.w3.org/2001/xml-events" xmlns:xlink="http://www.w3.org/1999/xlink" baseProfile="full" height="433.21527mm" id="svg5" version="1.1" viewBox="0 0 464.60025 433.21527" width="464.60025mm" xml:space="preserve">
	<defs/>
	<path d="M 125.146,433.015 C 115.092,431.85 107.782,429.378 90.465,421.285 C 75.219,414.162 66.226,409.219 58.288,403.602 C 42.28,392.273 28.791,376.809 17.082,356.36 C 7.042,338.825 2.327,324.597 0.523,306.391 C -1.093,290.083 1.118,268.164 6.002,252.072 C 10.173,238.329 15.41,228.314 24.234,217.205 C 29.108,211.069 28.956,211.462 29.913,202.524 C 30.767,194.551 31.696,189.222 34.117,178.387 C 37.672,162.478 38.736,154.531 38.171,148.101 C 37.456,139.963 34.844,131.037 30.519,121.955 C 27.522,115.661 26.951,113.397 27.5,109.986 C 27.859,107.757 28.197,106.94 30.745,102.144 C 31.388,100.933 32.168,98.933 32.478,97.699 C 33.034,95.486 33.03,95.435 32.121,93.846 C 30.418,90.867 31.175,87.409 34.021,85.167 C 35.808,83.759 39.112,81.767 44.403,78.906 C 49.406,76.202 51.842,74.432 56.475,70.14 C 61.589,65.402 64.3,62.032 66.574,57.585 C 69.0,52.843 70.859,50.657 74.075,48.765 C 78.329,46.262 81.124,45.621 87.712,45.634 C 92.611,45.644 93.987,45.785 97.621,46.648 C 99.943,47.2 102.214,47.735 102.668,47.837 C 103.443,48.011 103.494,47.897 103.496,46.088 C 103.496,41.863 104.971,39.566 108.863,37.709 C 114.608,34.967 122.376,33.881 134.207,34.163 C 147.056,34.469 152.502,35.646 155.649,38.794 C 156.578,39.723 157.407,40.699 157.49,40.96 C 157.604,41.32 158.15,41.212 159.716,40.52 C 163.394,38.893 168.693,37.761 177.081,36.811 C 183.172,36.122 189.355,36.125 195.595,36.821 C 207.987,38.204 211.979,39.405 220.101,44.191 L 221.281,44.886 L 223.037,43.189 C 225.733,40.586 231.367,35.996 235.438,33.088 C 241.869,28.493 255.659,20.354 260.559,18.262 L 262.925,17.251 L 262.826,15.386 C 262.742,13.792 262.861,13.399 263.646,12.687 C 264.152,12.229 269.787,9.228 276.167,6.018 C 284.913,1.619 288.194,0.141 289.497,0.017 C 291.575,-0.182 298.171,1.39 300.316,2.596 C 301.774,3.414 302.793,4.847 302.778,6.056 C 302.766,7.086 301.703,8.175 299.164,9.764 C 297.326,10.913 296.973,11.27 297.512,11.431 C 297.889,11.545 301.19,12.309 304.847,13.129 L 311.497,14.62 L 313.934,13.14 C 315.275,12.325 318.615,10.506 321.357,9.096 C 325.633,6.898 326.613,6.532 328.236,6.533 C 330.348,6.533 337.78,8.408 339.82,9.455 C 343.383,11.282 343.855,13.714 341.149,16.307 C 340.246,17.172 339.627,17.953 339.773,18.041 C 340.65,18.573 347.494,21.02 350.789,21.98 C 360.671,24.859 367.926,30.316 372.799,38.538 C 377.227,46.01 379.531,52.018 380.168,57.754 C 380.508,60.82 380.158,71.447 379.666,72.999 C 379.494,73.54 380.267,73.622 387.283,73.803 C 407.961,74.337 425.816,80.302 429.814,88.012 C 430.722,89.762 430.93,92.996 430.509,98.799 L 430.325,101.328 L 432.711,102.141 C 436.751,103.515 439.024,104.883 441.573,107.472 C 445.784,111.751 447.958,117.36 449.46,127.826 L 450.109,132.348 L 452.13,133.185 C 453.242,133.646 454.852,134.724 455.708,135.58 C 457.961,137.834 458.547,140.081 458.569,146.552 C 458.585,151.232 458.509,151.847 457.718,153.453 C 457.241,154.421 456.456,155.473 455.975,155.788 C 455.493,156.105 455.099,156.479 455.099,156.623 C 455.099,156.765 456.733,159.978 458.729,163.762 C 462.712,171.311 464.14,175.073 464.503,178.97 C 464.706,181.161 464.625,181.773 463.941,183.186 C 463.021,185.086 461.477,186.007 459.209,186.007 C 457.917,186.007 457.649,186.162 456.974,187.306 C 456.552,188.021 455.711,188.888 455.105,189.233 C 454.07,189.822 454.003,189.996 454.001,192.099 C 454.001,195.677 452.892,196.877 448.585,197.978 C 448.332,198.038 448.126,198.603 448.126,199.224 C 448.126,200.249 445.266,248.792 443.91,270.788 C 443.605,275.734 443.189,282.67 442.986,286.203 C 441.989,303.504 441.455,307.706 439.502,313.627 C 438.16,317.695 434.883,324.124 432.625,327.12 C 427.314,334.167 415.152,344.168 406.836,348.328 C 401.352,351.072 395.58,352.157 389.735,351.545 C 385.522,351.104 381.647,350.079 373.235,347.182 C 364.536,344.186 359.284,342.852 343.525,339.633 C 323.702,335.582 315.79,333.779 309.325,331.836 L 306.138,330.879 L 296.883,339.397 C 274.833,359.696 262.589,369.442 241.677,383.341 C 232.609,389.367 227.301,392.538 211.214,401.539 C 206.37,404.249 198.27,408.788 193.216,411.624 C 169.996,424.653 156.168,430.197 141.297,432.444 C 136.521,433.165 128.804,433.438 125.147,433.014 L 125.146,433.015 M 139.148,426.385 C 146.655,425.619 153.837,423.58 160.932,420.2 C 186.725,407.911 204.791,377.834 208.11,341.654 C 208.662,335.629 208.379,323.002 207.559,317.124 C 204.165,292.791 193.817,268.723 177.459,247.116 C 162.958,227.963 144.155,212.597 123.885,203.334 C 114.092,198.859 103.299,195.766 93.584,194.651 C 87.364,193.938 83.649,193.935 77.645,194.641 C 61.646,196.513 48.428,202.829 36.566,214.271 C 31.552,219.106 28.647,222.583 24.773,228.385 C 11.068,248.907 4.646,277.399 7.913,303.188 C 9.783,317.95 14.176,331.774 21.178,344.932 C 31.012,363.41 48.124,387.179 57.574,395.484 C 70.174,406.557 88.312,416.427 106.98,422.366 C 113.765,424.525 119.944,425.788 127.35,426.531 C 130.221,426.819 135.566,426.755 139.148,426.389 L 139.148,426.385 M 122.212,415.146 C 121.505,415.076 119.11,414.76 116.89,414.451 C 100.046,412.105 80.64,403.423 65.691,391.545 C 58.994,386.225 46.951,373.519 39.176,363.574 C 23.137,343.056 14.77,320.334 14.052,295.343 C 13.312,269.607 20.052,247.609 34.087,229.947 C 39.142,223.584 44.426,218.729 51.262,214.162 C 61.953,207.019 72.634,203.722 86.276,203.355 C 105.181,202.848 123.726,208.608 141.664,220.563 C 169.505,239.118 189.097,267.448 197.593,301.435 C 199.907,310.69 200.935,319.576 200.927,330.246 C 200.917,342.481 199.539,351.685 196.196,361.845 C 188.403,385.524 172.764,403.327 152.858,411.176 C 149.225,412.608 142.674,414.2 137.753,414.845 C 133.997,415.337 125.641,415.499 122.212,415.146 L 122.212,415.146 M 138.177,408.922 C 144.872,407.89 152.227,405.117 160.243,400.602 C 164.035,398.467 166.429,396.85 164.233,397.908 C 162.699,398.647 156.017,400.539 152.491,401.233 C 142.745,403.153 131.423,402.549 121.409,399.577 C 107.595,395.478 94.639,388.447 81.311,377.819 C 76.193,373.738 65.842,363.29 61.377,357.698 C 40.453,331.488 31.096,300.544 35.042,270.606 C 37.181,254.376 43.179,239.274 52.223,227.345 C 56.958,221.1 63.193,214.917 67.808,211.886 C 68.671,211.32 69.317,210.799 69.246,210.728 C 69.023,210.505 62.015,213.47 59.48,214.86 C 42.574,224.13 30.706,239.503 24.435,260.255 C 21.185,271.009 19.759,283.758 20.52,295.254 C 23.264,336.709 46.349,374.072 82.561,395.67 C 101.455,406.938 120.935,411.581 138.177,408.922 L 138.177,408.922 M 158.547,384.068 C 170.847,381.172 181.388,374.997 188.672,366.423 C 190.728,364.004 193.419,359.491 193.035,359.107 C 192.936,359.017 190.462,359.232 187.537,359.605 C 166.343,362.305 156.373,361.329 140.746,355.019 C 124.964,348.645 114.068,341.565 106.613,332.838 C 98.533,323.379 94.335,314.472 89.562,296.659 C 85.594,281.847 84.773,273.967 86.055,263.008 C 87.942,246.873 93.291,235.114 107.125,216.689 C 109.225,213.89 110.776,211.498 110.601,211.328 C 110.075,210.815 102.516,209.497 97.597,209.06 C 93.031,208.653 92.962,208.658 90.99,209.569 C 86.226,211.769 76.539,220.488 71.811,226.832 C 55.32,248.962 50.39,279.039 58.566,307.634 C 65.42,331.604 80.909,354.373 100.007,368.552 C 105.696,372.776 107.789,374.094 113.22,376.866 C 121.178,380.93 128.93,383.565 135.792,384.539 C 137.306,384.755 138.957,385.002 139.462,385.091 C 139.966,385.181 143.6,385.181 147.536,385.111 C 153.539,384.996 155.315,384.827 158.547,384.066 L 158.547,384.068 M 180.935,357.445 C 186.137,356.543 193.294,354.827 193.94,354.327 C 194.519,353.878 195.727,347.14 196.341,340.943 C 196.548,338.853 196.717,334.136 196.717,330.462 C 196.717,308.551 190.086,285.836 177.796,265.64 C 166.73,247.456 153.376,232.692 139.804,223.634 C 133.636,219.518 124.586,215.118 118.291,213.173 L 115.83,212.414 L 113.658,214.534 C 103.202,224.737 97.361,233.698 93.36,245.672 C 90.124,255.355 88.94,263.407 89.292,273.338 C 89.546,280.506 90.128,284.526 92.079,292.564 C 97.414,314.546 105.686,328.957 118.52,338.628 C 126.991,345.01 141.414,352.352 151.488,355.409 C 155.34,356.577 162.053,357.913 165.887,358.275 C 168.955,358.563 177.057,358.117 180.935,357.445 L 180.935,357.445 M 154.51,341.009 C 149.928,340.268 143.668,338.229 139.418,336.092 C 138.283,335.522 135.558,333.864 133.362,332.405 C 128.467,329.157 120.968,321.788 117.438,316.758 C 108.12,303.481 102.065,283.458 102.927,268.771 C 103.769,254.442 109.206,244.834 119.276,239.884 C 124.115,237.504 127.153,236.839 133.039,236.869 C 137.537,236.889 138.585,237.02 141.451,237.894 C 149.319,240.293 157.183,245.285 164.899,252.78 C 173.618,261.25 181.652,273.865 185.248,284.736 C 187.92,292.815 188.414,295.923 188.424,304.738 C 188.434,311.969 188.372,312.673 187.447,316.117 C 186.27,320.488 183.174,326.925 180.639,330.269 C 174.943,337.784 168.049,341.32 159.314,341.208 C 157.176,341.178 155.014,341.091 154.51,341.009 L 154.51,341.009 M 157.508,338.103 C 155.897,336.974 147.345,333.05 146.619,333.105 C 145.338,333.195 139.205,331.415 136.999,330.299 C 129.333,326.424 118.705,314.759 113.633,304.655 C 109.595,296.611 107.305,287.916 106.6,277.947 C 106.14,271.439 107.444,262.325 109.608,256.914 C 110.485,254.72 113.615,249.136 113.966,249.136 C 114.043,249.136 113.449,250.415 112.646,251.98 C 111.107,254.979 110.106,258.425 109.102,264.183 C 108.168,269.541 108.265,281.76 109.286,287.305 C 111.85,301.23 117.191,310.626 129.327,322.561 C 133.85,327.01 136.118,328.784 139.013,330.138 C 141.301,331.208 146.508,332.864 146.245,332.437 C 146.144,332.275 145.003,331.55 143.71,330.827 C 136.311,326.688 125.634,316.014 118.602,305.723 C 114.665,299.962 112.9,295.434 111.421,287.305 C 109.278,275.522 109.191,267.02 111.135,259.412 C 112.423,254.368 114.541,249.328 116.702,246.162 L 118.281,243.85 L 116.147,245.666 C 106.799,253.625 103.063,266.001 105.161,282.056 C 105.885,287.604 106.461,290.097 108.318,295.747 C 113.571,311.719 125.349,326.106 138.615,332.751 C 144.347,335.622 152.923,338.277 157.619,338.634 C 158.283,338.684 158.274,338.644 157.508,338.103 L 157.508,338.103 M 164.562,337.475 L 166.357,337.01 L 163.828,335.848 C 162.437,335.209 159.738,334.084 157.829,333.35 C 145.996,328.792 138.587,323.388 130.689,313.553 C 124.256,305.543 120.597,299.901 119.293,295.982 C 117.642,291.022 115.983,279.519 115.977,272.992 C 115.967,261.847 119.455,251.382 126.143,242.492 L 128.122,239.861 L 126.928,240.099 C 125.366,240.411 124.47,241.294 122.073,244.883 C 117.987,250.998 116.056,255.94 114.818,263.449 C 114.183,267.302 114.094,269.037 114.263,274.276 C 114.684,287.339 118.081,297.381 126.182,309.511 C 130.215,315.549 134.641,320.905 138.127,323.967 C 141.338,326.786 148.398,331.348 153.959,334.195 C 156.583,335.539 159.226,336.914 159.831,337.251 C 161.205,338.017 162.278,338.067 164.562,337.475 L 164.562,337.475 M 171.45,334.694 C 178.479,330.236 183.724,318.793 184.638,305.922 C 184.839,303.085 184.928,300.566 184.836,300.325 C 184.734,300.06 183.02,299.709 180.507,299.439 C 169.372,298.241 162.209,295.322 156.213,289.538 C 150.605,284.129 147.384,277.874 146.395,270.475 C 145.694,265.228 146.521,255.617 148.26,248.81 C 148.669,247.206 149.004,245.737 149.004,245.546 C 149.004,244.583 140.902,241.432 136.067,240.515 C 131.267,239.604 130.203,239.722 128.797,241.325 C 125.548,245.025 122.322,251.322 120.563,257.393 C 117.892,266.612 117.876,278.484 120.52,288.231 C 123.618,299.652 130.92,311.406 139.439,318.686 C 145.816,324.134 150.732,327.047 161.212,331.585 C 164.245,332.898 167.322,334.364 168.05,334.841 C 168.778,335.318 169.465,335.719 169.576,335.73 C 169.688,335.74 170.531,335.276 171.449,334.694 L 171.45,334.694 M 183.307,289.886 C 182.838,287.672 182.02,284.411 181.489,282.638 C 180.237,278.458 175.977,269.843 173.543,266.569 C 169.86,261.613 157.926,250.486 153.54,247.919 C 152.99,247.596 152.053,252.604 151.535,258.642 C 151.072,264.03 151.561,271.39 152.671,275.73 C 154.675,283.567 158.885,288.191 166.526,290.951 C 170.574,292.414 177.749,293.712 182.639,293.865 L 184.16,293.915 L 183.307,289.886 M 222.223,378.531 C 231.558,361.835 235.408,348.487 236.364,329.513 C 237.632,304.314 230.552,274.049 217.963,250.86 C 210.671,237.428 204.383,228.879 194.534,219.005 C 178.834,203.263 158.738,190.832 137.627,183.802 C 130.259,181.348 125.935,180.349 119.349,179.58 C 114.185,178.975 109.817,178.879 111.752,179.413 C 112.357,179.581 114.339,180.0 116.156,180.345 C 120.903,181.249 129.73,183.931 135.056,186.088 C 149.689,192.015 162.49,200.149 175.98,212.091 C 195.071,228.991 210.32,252.486 218.485,277.58 C 222.652,290.383 226.308,308.794 228.087,325.924 C 229.099,335.676 228.727,343.737 226.854,352.635 C 225.442,359.338 220.234,380.816 219.564,382.696 C 219.136,383.895 219.838,382.8 222.222,378.531 L 222.223,378.531 M 238.282,375.03 C 239.645,373.947 240.759,372.915 240.759,372.739 C 240.759,372.562 239.843,372.467 238.723,372.528 L 236.686,372.637 L 235.814,375.137 C 235.335,376.512 235.137,377.494 235.374,377.319 C 235.611,377.144 236.919,376.114 238.282,375.03 L 238.282,375.03 M 248.283,363.301 C 253.041,361.041 262.538,355.738 266.501,353.127 C 269.115,351.404 274.313,346.796 273.998,346.479 C 273.893,346.375 273.599,346.459 273.341,346.659 C 273.084,346.861 270.396,348.318 267.368,349.894 C 254.583,356.552 242.026,363.712 240.851,365.015 C 240.195,365.742 239.658,366.472 239.658,366.638 C 239.658,367.08 243.268,365.682 248.283,363.301 L 248.283,363.301 M 256.741,351.154 C 270.18,342.834 277.225,338.267 277.63,337.611 C 278.153,336.765 264.627,343.701 256.174,348.614 C 253.651,350.08 249.746,352.338 247.496,353.63 C 243.544,355.9 243.391,356.035 243.0,357.589 C 242.488,359.621 242.492,359.726 243.07,359.505 C 243.331,359.401 249.483,355.646 256.741,351.154 L 256.741,351.154 M 248.834,349.022 C 256.75,343.923 263.52,339.692 269.937,335.833 C 277.409,331.34 282.5,327.591 281.415,327.382 C 280.724,327.249 275.292,329.484 270.723,331.782 C 263.803,335.261 246.367,345.509 245.938,346.348 C 245.77,346.677 245.535,347.697 245.415,348.614 C 245.296,349.532 245.08,350.591 244.935,350.968 C 244.63,351.763 244.395,351.881 248.834,349.022 M 399.336,343.608 C 407.214,341.136 422.897,328.405 428.346,320.058 C 430.223,317.183 432.641,311.367 433.57,307.491 C 434.602,303.19 434.978,298.881 436.198,277.395 C 437.018,262.949 438.672,234.52 439.123,227.114 C 439.425,222.168 439.841,214.901 440.049,210.966 C 440.256,207.029 440.524,202.852 440.644,201.682 L 440.861,199.556 L 433.575,199.774 C 423.64,200.072 423.988,199.996 423.746,201.895 C 423.638,202.746 423.292,208.561 422.979,214.819 C 422.335,227.65 421.023,251.377 419.689,274.276 C 419.196,282.754 418.534,294.811 418.219,301.069 C 417.904,307.327 417.477,313.602 417.271,315.015 C 416.81,318.168 415.622,320.852 413.791,322.879 C 409.145,328.021 399.61,329.319 396.405,325.246 C 395.21,323.727 392.473,317.843 391.214,314.086 C 388.595,306.268 387.728,298.125 388.053,284.369 C 388.258,275.684 389.121,258.574 389.59,253.907 C 390.22,247.641 390.563,239.294 390.864,222.893 C 391.214,203.815 391.479,200.421 393.088,194.45 C 394.278,190.033 397.274,184.335 399.659,181.952 C 402.582,179.031 404.18,178.599 411.665,178.697 L 417.48,178.767 L 419.564,172.938 C 420.71,169.732 421.587,167.047 421.513,166.974 C 421.439,166.904 419.198,167.024 416.532,167.244 C 413.867,167.467 407.291,167.648 401.92,167.647 C 391.213,167.647 386.507,167.237 369.967,164.892 C 364.864,164.169 360.609,163.656 360.512,163.753 C 360.415,163.843 360.759,166.129 361.275,168.817 C 361.792,171.505 362.725,176.678 363.349,180.312 C 366.367,197.887 368.22,208.099 368.874,210.751 C 370.15,215.924 370.908,217.111 376.825,223.206 C 379.807,226.276 382.8,229.727 383.477,230.873 C 388.367,239.155 387.934,246.622 382.119,254.303 C 378.987,258.442 374.785,261.465 368.686,263.971 L 364.996,265.487 L 364.904,266.942 C 364.654,270.903 363.959,276.021 363.333,278.498 C 361.402,286.152 356.446,294.704 349.525,302.324 C 342.488,310.074 327.972,319.948 317.914,323.828 C 316.444,324.395 315.371,324.973 315.528,325.112 C 315.863,325.408 325.154,327.996 349.681,334.629 C 373.496,341.067 385.359,344.071 388.668,344.497 C 392.32,344.97 395.944,344.664 399.336,343.601 L 399.336,343.608 M 241.653,333.37 C 244.146,314.365 241.19,290.277 233.709,268.62 C 227.742,251.344 218.441,235.21 206.291,221.058 C 187.506,199.178 166.37,185.391 143.227,179.923 C 139.411,179.021 129.557,177.438 129.308,177.688 C 129.235,177.758 131.036,178.35 133.31,178.997 C 155.812,185.406 172.314,194.174 188.16,208.141 C 203.845,221.966 214.735,237.109 223.931,257.88 C 233.755,280.069 239.007,299.054 240.427,317.508 C 240.814,322.54 240.692,335.458 240.209,340.523 C 239.915,343.602 241.046,338.003 241.653,333.37 L 241.653,333.37 M 249.642,340.025 C 255.529,335.952 270.601,326.831 279.393,322.021 C 281.441,320.901 282.196,320.207 283.706,318.057 C 285.751,315.144 285.907,314.673 284.71,315.026 C 282.683,315.622 269.769,322.239 260.18,327.594 C 247.504,334.674 247.824,334.468 247.595,335.687 C 247.258,337.483 246.937,341.625 247.135,341.625 C 247.243,341.625 248.371,340.905 249.642,340.025 L 249.642,340.025 M 284.212,338.781 C 289.445,330.665 295.531,313.264 298.059,299.196 C 299.043,293.719 299.428,279.906 298.771,273.622 C 296.882,255.548 291.393,238.028 281.728,219.223 C 274.31,204.79 266.628,194.007 256.006,183.12 C 234.349,160.92 206.76,147.859 175.129,144.826 C 170.057,144.34 165.582,144.72 161.667,145.967 L 159.464,146.669 L 164.972,146.699 C 191.313,146.859 219.899,158.065 241.864,176.84 C 264.169,195.907 281.293,224.736 288.877,255.989 C 292.255,269.909 293.452,280.652 293.139,294.235 C 292.94,302.851 292.605,305.882 291.02,313.36 C 289.579,320.16 286.073,331.426 283.873,336.325 C 281.425,341.78 281.575,342.866 284.212,338.775 L 284.212,338.781 M 263.148,321.625 C 274.205,314.818 278.471,312.323 283.327,309.823 L 286.072,308.409 L 286.915,305.473 C 288.583,299.666 288.619,298.462 287.034,301.553 C 286.653,302.296 285.949,303.269 285.47,303.717 C 284.631,304.499 277.617,307.981 258.376,317.167 C 253.431,319.528 249.195,321.579 248.963,321.725 C 248.708,321.884 248.434,323.789 248.271,326.528 L 248.0,331.067 L 250.16,329.679 C 251.349,328.916 257.193,325.291 263.148,321.625 L 263.148,321.625 M 303.991,320.344 C 312.86,311.749 322.062,301.18 323.684,297.731 C 326.237,292.3 329.731,258.407 329.035,245.833 C 328.807,241.72 328.414,238.832 326.976,230.715 L 326.541,228.26 L 323.747,230.383 C 315.922,236.33 305.345,242.896 303.59,242.896 C 302.583,242.896 302.489,243.13 302.807,244.835 C 302.966,245.686 303.602,249.686 304.221,253.723 C 306.46,268.316 307.182,279.011 306.475,287.122 C 305.522,298.055 303.603,305.937 298.565,319.603 C 297.412,322.732 296.241,325.923 295.964,326.693 L 295.46,328.095 L 296.922,326.937 C 297.726,326.3 300.907,323.333 303.991,320.344 L 303.991,320.344 M 407.649,322.882 C 410.256,321.613 411.909,319.822 412.695,317.412 C 413.429,315.162 413.913,308.213 414.177,296.114 C 414.556,278.821 415.784,237.897 416.391,222.343 C 417.658,189.874 417.884,182.508 417.624,182.2 C 417.474,182.024 414.811,181.949 411.705,182.032 C 406.45,182.173 405.914,182.253 403.994,183.193 C 401.677,184.327 400.223,186.173 398.918,189.639 C 396.147,196.999 395.196,205.524 394.553,228.765 C 394.114,244.601 393.985,247.51 392.997,263.632 C 392.08,278.614 391.91,297.673 392.643,303.428 C 393.531,310.405 395.722,317.626 397.974,320.995 C 399.469,323.233 401.819,324.505 403.9,324.204 C 404.707,324.087 406.394,323.492 407.649,322.882 M 320.941,318.227 C 335.134,309.666 340.109,303.457 345.328,287.793 C 351.993,267.787 353.365,241.386 349.016,216.837 C 346.97,205.286 343.45,193.328 338.485,181.062 C 331.287,163.278 330.264,159.847 326.313,140.23 C 325.098,134.197 324.008,129.011 323.891,128.705 C 323.739,128.31 321.858,127.809 317.361,126.965 C 307.981,125.206 291.159,121.98 264.432,116.818 C 215.63,107.391 201.454,104.781 201.092,105.154 C 200.511,105.755 198.506,111.323 196.188,118.773 C 194.873,123.001 193.632,126.894 193.431,127.424 C 193.23,127.952 193.147,128.386 193.248,128.386 C 193.349,128.386 195.368,127.814 197.735,127.116 C 207.326,124.284 222.347,120.873 230.299,119.721 C 235.689,118.94 247.173,118.837 251.953,119.528 C 263.023,121.127 273.884,124.851 283.866,130.467 C 303.021,141.245 319.547,157.231 330.751,175.821 C 341.73,194.036 347.771,212.528 349.967,234.638 C 352.467,259.811 345.378,286.947 331.482,305.394 C 328.401,309.485 322.549,315.752 319.191,318.558 C 318.02,319.537 317.147,320.337 317.252,320.337 C 317.357,320.337 319.017,319.388 320.941,318.227 L 320.941,318.227 M 262.221,311.622 C 277.726,302.673 283.14,299.717 285.909,298.681 C 287.99,297.902 288.08,297.815 288.294,296.351 C 288.417,295.514 288.466,293.508 288.403,291.893 L 288.289,288.957 L 287.292,290.62 C 286.743,291.535 285.832,292.726 285.267,293.267 C 284.701,293.809 276.19,298.223 266.353,303.075 L 248.467,311.898 L 248.467,315.606 C 248.467,318.968 248.526,319.292 249.1,319.072 C 249.449,318.937 255.353,315.585 262.221,311.622 L 262.221,311.622 M 250.852,307.995 C 252.064,307.265 257.071,304.365 261.981,301.553 C 273.123,295.172 274.428,294.382 281.773,289.565 C 287.592,285.749 287.737,285.623 287.742,284.369 C 287.742,283.663 288.158,281.798 288.66,280.226 C 289.737,276.855 289.875,275.221 289.023,275.927 C 288.72,276.178 287.737,277.416 286.837,278.676 C 285.132,281.066 284.24,281.731 278.195,285.121 C 274.229,287.347 263.84,293.586 254.247,299.504 C 247.039,303.952 247.489,303.386 247.971,307.4 C 248.098,308.46 248.303,309.327 248.426,309.325 C 248.549,309.325 249.641,308.726 250.852,307.995 L 250.852,307.995 M 256.541,294.653 C 271.848,284.07 282.737,276.79 284.823,275.744 C 285.921,275.194 287.109,274.489 287.463,274.178 C 288.333,273.412 288.279,271.512 287.323,269.293 C 286.696,267.835 286.461,267.577 286.131,267.99 C 285.904,268.273 282.168,270.319 277.828,272.535 C 269.024,277.032 250.941,286.559 247.549,288.489 C 246.323,289.187 245.375,289.975 245.41,290.267 C 245.475,290.814 246.908,298.619 247.208,300.06 C 247.303,300.514 247.418,300.882 247.464,300.878 C 247.511,300.878 251.596,298.073 256.541,294.653 L 256.541,294.653 M 353.103,290.608 C 354.71,288.489 356.877,285.042 357.92,282.948 L 359.816,279.141 L 359.961,273.956 C 360.168,266.558 359.629,261.124 358.458,258.812 C 357.684,257.285 356.371,255.624 356.371,256.171 C 356.371,256.251 355.787,259.607 355.074,263.622 C 352.877,275.992 350.015,286.155 345.894,296.219 L 343.909,301.069 L 347.046,297.766 C 348.771,295.948 351.497,292.728 353.103,290.608 L 353.103,290.608 M 213.555,293.637 C 207.562,265.348 199.665,248.169 184.561,230.567 C 163.179,205.648 139.021,190.701 112.486,185.972 C 106.285,184.866 94.662,184.619 87.161,185.434 C 78.334,186.392 78.639,186.557 89.254,186.569 C 97.809,186.579 100.05,186.701 104.595,187.409 C 110.631,188.351 118.094,190.163 123.496,192.0 C 164.022,205.771 197.985,243.719 211.751,290.608 C 213.653,297.084 214.191,298.684 214.471,298.684 C 214.555,298.684 214.143,296.412 213.555,293.637 M 250.207,284.492 C 252.984,282.743 257.899,279.66 261.129,277.643 C 264.359,275.625 269.726,272.239 273.057,270.12 C 279.895,265.768 283.314,264.036 285.068,264.036 C 286.038,264.036 286.268,263.891 286.261,263.284 C 286.249,262.434 284.948,256.5 284.723,256.275 C 284.643,256.195 283.925,256.572 283.129,257.115 C 282.333,257.659 278.296,259.858 274.158,262.003 C 261.038,268.805 243.173,278.284 242.629,278.732 C 242.548,278.802 242.862,280.302 243.329,282.071 C 244.676,287.182 244.822,287.672 244.994,287.672 C 245.083,287.672 247.43,286.242 250.207,284.492 M 336.788,278.197 C 339.717,270.618 340.57,266.436 341.481,255.191 C 342.391,243.948 342.489,240.682 342.067,235.556 C 340.344,214.625 333.318,194.087 321.98,176.843 C 306.638,153.511 283.628,135.966 260.211,129.745 C 256.105,128.653 255.731,128.62 246.448,128.5 C 235.585,128.362 235.64,128.302 244.246,130.92 C 257.866,135.066 261.999,136.762 267.846,140.604 C 274.948,145.271 289.621,157.808 300.53,168.529 C 307.215,175.099 310.323,179.299 313.694,186.313 C 315.181,189.408 317.246,193.29 318.282,194.938 C 321.464,200.003 325.987,210.168 330.357,222.076 C 333.738,231.29 334.722,236.204 335.261,246.566 C 335.625,253.566 334.442,278.045 333.416,284.736 C 333.224,285.994 333.24,285.984 334.188,284.22 C 334.72,283.23 335.89,280.52 336.788,278.197 L 336.788,278.197 M 303.654,277.947 C 304.703,260.225 294.875,231.249 280.416,209.428 C 277.783,205.453 275.458,202.096 275.251,201.968 C 275.043,201.839 275.791,203.157 276.912,204.895 C 280.16,209.93 285.712,219.854 288.624,225.829 C 297.652,244.357 302.712,263.345 302.806,279.048 C 302.837,284.318 303.314,283.7 303.654,277.947 L 303.654,277.947 M 243.813,275.986 C 244.657,275.411 249.146,272.582 253.789,269.697 C 258.431,266.812 265.827,262.153 270.224,259.342 C 278.879,253.81 280.55,253.01 282.692,253.372 C 283.491,253.506 284.068,253.452 284.068,253.25 C 284.068,252.946 282.167,246.509 281.687,245.188 C 281.576,244.881 280.882,245.208 279.608,246.173 C 277.484,247.781 274.169,249.677 260.946,256.845 C 253.403,260.934 239.678,268.513 239.392,268.747 C 239.273,268.837 241.999,277.029 242.151,277.029 C 242.221,277.029 242.969,276.559 243.813,275.986 L 243.813,275.986 M 247.916,261.173 C 252.155,258.448 259.508,253.672 264.256,250.56 C 273.031,244.808 278.042,242.273 279.929,242.634 C 280.619,242.767 280.761,242.674 280.59,242.207 C 278.875,237.5 277.295,233.721 277.043,233.721 C 276.87,233.721 276.727,233.855 276.727,234.02 C 276.727,234.185 275.943,235.107 274.984,236.071 C 272.104,238.963 269.62,240.502 246.949,253.428 L 235.706,259.84 L 237.206,263.473 C 238.635,266.931 238.743,267.082 239.458,266.617 C 239.871,266.348 243.677,263.899 247.916,261.173 L 247.916,261.173 M 364.76,261.452 C 370.839,258.927 374.312,255.776 377.0,250.351 L 378.576,247.169 L 378.555,242.923 C 378.537,239.281 378.4,238.322 377.592,236.201 C 376.14,232.388 374.439,229.799 371.235,226.53 C 368.014,223.242 366.226,221.979 364.789,221.977 C 363.879,221.977 362.243,223.142 362.243,223.792 C 362.243,223.969 363.44,225.141 364.904,226.396 C 370.253,230.989 373.095,235.353 374.194,240.666 C 375.38,246.399 373.108,253.093 368.801,256.561 C 367.981,257.221 366.046,258.421 364.501,259.228 C 362.149,260.457 361.673,260.861 361.576,261.706 C 361.512,262.261 361.519,262.715 361.59,262.715 C 361.662,262.715 363.088,262.147 364.76,261.452 L 364.76,261.452 M 243.833,251.821 C 254.288,245.024 264.15,238.458 267.735,235.906 C 271.406,233.294 274.64,231.743 275.804,232.035 C 276.74,232.269 276.742,232.265 276.235,231.069 C 275.624,229.627 273.308,224.805 273.102,224.544 C 273.022,224.44 272.873,224.594 272.771,224.887 C 272.483,225.699 270.9,227.072 268.286,228.775 C 265.948,230.297 251.659,238.275 238.19,245.577 C 234.456,247.601 231.266,249.373 231.102,249.513 C 230.839,249.739 234.465,257.576 234.833,257.576 C 234.913,257.576 238.963,254.987 243.833,251.821 L 243.833,251.821 M 362.876,254.059 C 366.792,252.157 368.696,248.581 368.406,243.677 C 368.201,240.218 367.277,238.032 364.982,235.58 C 363.152,233.623 360.03,232.117 358.235,232.325 L 357.288,232.436 L 357.06,243.263 C 356.935,249.218 356.791,254.255 356.741,254.457 C 356.691,254.659 356.67,254.971 356.694,255.15 C 356.773,255.74 360.922,255.009 362.876,254.059 L 362.876,254.059 M 241.31,240.606 C 255.116,232.11 262.915,227.177 266.459,224.697 C 267.978,223.635 269.712,222.648 270.313,222.503 C 270.914,222.36 271.519,222.179 271.658,222.101 C 271.797,222.031 271.243,220.767 270.426,219.307 C 267.763,214.545 268.408,214.687 264.918,218.101 C 262.624,220.347 260.491,221.924 256.358,224.432 C 250.628,227.908 239.185,234.604 231.118,239.199 L 226.431,241.869 L 227.124,243.025 C 227.505,243.66 228.267,244.965 228.818,245.924 C 229.368,246.883 229.927,247.603 230.059,247.524 C 230.191,247.444 235.254,244.332 241.31,240.606 L 241.31,240.606 M 244.341,227.316 C 251.862,222.345 258.881,217.573 259.939,216.713 C 262.936,214.277 264.713,213.167 265.618,213.167 C 266.463,213.167 266.738,212.654 266.103,212.262 C 265.912,212.144 265.214,211.06 264.551,209.854 C 263.888,208.649 263.259,207.667 263.155,207.673 C 263.05,207.683 260.982,209.327 258.56,211.336 C 253.213,215.768 248.162,218.807 232.94,226.747 C 226.555,230.078 221.325,232.951 221.319,233.131 C 221.309,233.311 222.23,234.919 223.357,236.706 L 225.407,239.956 L 228.037,238.156 C 229.483,237.165 236.82,232.288 244.341,227.316 L 244.341,227.316 M 304.937,238.519 C 305.369,238.288 305.722,238.0 305.722,237.879 C 305.722,237.757 304.765,236.318 303.596,234.68 C 298.622,227.716 294.779,220.637 291.715,212.801 C 288.685,205.052 288.04,203.625 287.563,203.625 C 287.31,203.625 286.646,203.985 286.088,204.424 C 285.106,205.196 285.079,205.309 285.273,207.866 C 285.387,209.378 285.972,211.983 286.637,213.949 C 289.14,221.338 296.056,233.512 300.183,237.794 C 301.772,239.443 301.995,239.558 303.029,239.262 C 303.647,239.084 304.505,238.751 304.937,238.519 L 304.937,238.519 M 318.375,228.582 C 319.862,227.472 321.505,226.267 322.025,225.904 C 322.857,225.325 322.971,224.991 322.965,223.151 C 322.945,217.441 321.401,211.931 317.855,204.91 C 314.063,197.401 309.245,190.779 307.576,190.779 C 307.242,190.779 304.83,192.119 302.216,193.756 C 299.602,195.393 295.647,197.808 293.427,199.121 C 291.206,200.435 289.348,201.545 289.298,201.589 C 289.247,201.629 290.516,204.904 292.117,208.861 C 296.683,220.144 302.423,230.79 306.476,235.494 L 308.056,237.33 L 311.864,233.965 C 313.959,232.114 316.889,229.692 318.375,228.582 L 318.375,228.582 M 302.642,220.227 C 299.204,213.738 294.711,204.224 294.711,203.431 C 294.711,203.341 294.905,203.257 295.141,203.257 C 295.378,203.257 297.415,202.187 299.669,200.878 C 304.653,197.984 308.509,196.438 309.237,197.041 C 310.438,198.039 318.479,213.476 319.248,216.263 C 319.989,218.945 318.83,220.192 310.241,225.945 L 306.869,228.203 L 302.642,220.227 M 310.397,222.913 C 310.527,222.807 301.666,204.227 301.304,203.847 C 300.95,203.476 298.984,204.183 298.395,204.894 C 298.121,205.223 298.442,206.001 299.549,207.699 C 300.392,208.991 302.034,212.226 303.198,214.89 C 305.617,220.424 306.271,221.756 307.263,223.166 C 307.958,224.155 307.991,224.163 309.14,223.578 C 309.783,223.251 310.349,222.952 310.397,222.913 L 310.397,222.913 M 316.757,217.926 C 317.147,217.717 317.467,217.315 317.467,217.033 C 317.467,216.751 315.65,212.88 313.429,208.429 C 311.209,203.978 309.39,200.21 309.386,200.054 C 309.386,199.898 309.242,199.553 309.073,199.285 C 308.82,198.886 308.52,198.901 307.398,199.365 L 306.032,199.936 L 307.858,203.337 C 308.862,205.208 310.627,208.886 311.781,211.51 C 315.034,218.912 314.995,218.862 316.757,217.92 L 316.757,217.926 M 221.998,230.347 C 235.792,221.983 246.523,215.004 252.815,210.308 C 255.621,208.214 257.743,206.932 259.32,206.382 L 261.66,205.564 L 259.645,202.668 C 258.537,201.075 257.487,199.722 257.312,199.663 C 257.138,199.603 256.385,200.386 255.639,201.401 C 253.877,203.803 251.225,205.532 235.621,214.461 C 219.333,223.782 216.169,225.642 216.169,225.898 C 216.169,226.353 219.933,231.151 220.289,231.151 C 220.499,231.151 221.268,230.789 221.998,230.347 L 221.998,230.347 M 358.786,226.763 C 358.922,225.644 359.256,224.291 359.528,223.755 C 360.173,222.486 362.024,221.364 364.364,220.824 C 366.095,220.425 366.227,220.318 366.083,219.44 C 363.472,203.508 361.547,195.449 351.367,157.836 C 349.277,150.112 347.214,142.35 346.782,140.585 C 346.35,138.821 345.765,137.13 345.481,136.828 C 343.878,135.113 330.312,137.609 330.312,139.618 C 330.312,140.736 334.383,154.183 336.078,158.665 C 336.994,161.087 339.686,167.116 342.06,172.061 C 346.502,181.314 347.773,184.37 349.705,190.445 C 352.996,200.79 355.484,214.327 356.577,227.835 L 356.828,230.942 L 357.684,229.869 C 358.227,229.188 358.629,228.054 358.786,226.763 L 358.786,226.763 M 229.763,214.248 C 237.527,209.09 245.882,203.46 248.33,201.738 C 250.934,199.906 253.482,198.411 254.471,198.134 L 256.162,197.66 L 255.204,196.514 C 251.911,192.574 251.797,192.49 250.353,192.924 C 249.618,193.146 247.905,194.033 246.545,194.897 C 239.074,199.643 220.04,211.707 215.509,214.568 C 212.623,216.391 210.228,217.95 210.187,218.033 C 210.146,218.113 211.171,219.527 212.463,221.168 C 213.901,222.992 214.975,224.049 215.231,223.889 C 215.46,223.745 222.0,219.407 229.763,214.248 L 229.763,214.248 M 220.757,207.66 C 225.601,204.162 232.538,199.116 236.172,196.449 C 244.131,190.606 245.123,190.047 247.544,190.039 L 249.384,190.029 L 246.999,187.822 C 244.668,185.668 244.573,185.621 242.889,185.791 C 240.737,186.007 240.329,186.217 231.584,191.609 C 217.89,200.053 203.138,209.234 202.835,209.503 C 202.668,209.651 203.887,211.278 205.545,213.118 L 208.559,216.465 L 210.254,215.24 C 211.186,214.567 215.912,211.154 220.757,207.655 L 220.757,207.66 M 203.727,206.255 C 205.019,205.279 209.957,201.698 214.701,198.297 C 219.445,194.896 226.134,190.024 229.565,187.471 C 232.997,184.917 236.198,182.617 236.679,182.36 C 237.518,181.911 239.488,182.014 240.971,182.583 C 242.072,183.006 241.254,182.128 238.883,180.346 C 235.47,177.781 233.743,178.007 228.097,181.755 C 226.482,182.828 222.106,185.651 218.371,188.029 C 212.784,191.589 196.264,202.318 195.622,202.805 C 195.376,202.991 200.584,208.029 201.023,208.029 C 201.219,208.029 202.436,207.231 203.727,206.255 M 284.211,198.067 C 286.426,195.381 292.119,190.49 295.156,188.664 C 299.489,186.059 302.669,185.51 307.046,186.608 C 308.434,186.957 309.571,187.073 309.755,186.884 C 309.934,186.7 309.595,185.602 308.973,184.356 C 305.886,178.164 296.866,168.846 285.383,159.985 C 277.695,154.054 265.771,146.162 261.108,143.92 C 258.856,142.837 252.649,140.513 247.161,138.698 C 231.545,133.533 218.72,130.604 213.787,131.076 C 210.903,131.352 182.45,138.56 180.957,139.392 C 180.635,139.572 181.569,139.78 183.342,139.924 C 190.626,140.513 198.755,141.76 203.874,143.075 C 214.711,145.859 225.733,150.121 233.947,154.706 C 252.346,164.977 268.372,180.46 276.032,195.367 C 277.277,197.789 278.877,200.743 279.587,201.931 L 280.878,204.091 L 281.553,202.279 C 281.925,201.284 283.121,199.388 284.211,198.067 L 284.211,198.067 M 250.881,160.119 C 250.291,159.811 249.052,159.018 248.128,158.356 C 245.722,156.631 238.3,152.126 235.707,150.817 C 232.211,149.052 225.662,146.939 217.394,144.908 C 204.812,141.818 199.956,140.555 199.712,140.311 C 199.267,139.866 201.351,138.665 206.81,136.22 C 213.314,133.307 213.369,133.303 221.491,134.985 C 231.962,137.154 242.57,140.215 250.118,143.245 C 255.789,145.52 257.019,146.122 261.959,149.046 L 265.726,151.274 L 264.712,152.359 C 262.175,155.074 253.834,160.672 252.32,160.678 C 252.119,160.678 251.471,160.427 250.881,160.119 L 250.881,160.119 M 254.957,155.953 C 256.15,155.349 260.886,151.502 260.924,151.106 C 260.935,150.985 260.594,150.729 260.164,150.538 C 259.524,150.251 258.873,150.528 256.553,152.05 C 253.064,154.346 250.408,155.774 250.135,155.5 C 250.021,155.387 250.428,154.082 251.039,152.601 C 251.65,151.119 252.024,149.787 251.868,149.642 C 251.713,149.496 250.265,149.011 248.65,148.564 C 247.035,148.118 243.028,146.95 239.745,145.972 C 228.922,142.745 217.117,140.467 214.125,141.029 C 212.415,141.349 212.772,141.668 215.985,142.695 C 224.173,145.311 239.122,151.117 245.531,154.171 C 251.95,157.23 252.299,157.296 254.957,155.953 L 254.957,155.953 M 256.392,149.552 L 257.385,148.698 L 253.568,147.029 C 245.808,143.638 220.555,135.974 219.429,136.67 C 218.812,137.051 219.109,138.281 219.952,138.833 C 220.418,139.138 222.854,139.884 225.365,140.492 C 236.94,143.288 243.227,145.28 250.669,148.503 C 252.99,149.509 255.004,150.348 255.145,150.369 C 255.285,150.389 255.846,150.023 256.392,149.552 L 256.392,149.552 M 211.673,137.771 C 213.742,136.609 215.435,135.573 215.435,135.468 C 215.435,134.833 208.956,136.774 205.787,138.359 C 203.246,139.629 203.341,140.285 206.032,140.049 C 207.451,139.925 208.832,139.367 211.673,137.771 M 47.707,193.901 C 54.067,188.762 59.664,185.482 70.132,180.76 C 73.846,179.085 78.506,176.679 80.488,175.415 C 89.63,169.577 95.343,166.8 117.114,157.604 C 124.848,154.337 126.14,153.516 127.003,151.324 C 127.241,150.719 127.566,147.499 127.724,144.167 C 128.17,134.789 129.465,131.934 136.667,124.44 C 137.686,123.381 138.376,122.513 138.2,122.513 C 138.025,122.513 135.553,123.267 132.708,124.189 C 126.476,126.208 116.744,128.679 108.999,130.21 C 85.451,134.862 65.159,135.154 47.029,131.099 C 44.739,130.587 42.766,130.268 42.644,130.39 C 42.523,130.511 42.827,133.702 43.322,137.481 C 44.041,142.982 44.219,145.959 44.216,152.426 C 44.216,161.172 44.087,162.11 41.287,174.263 C 39.727,181.037 38.717,187.089 37.795,195.183 C 36.746,204.388 36.443,203.919 40.825,199.886 C 42.894,197.981 45.991,195.288 47.707,193.901 L 47.707,193.901 M 57.583,174.541 C 55.62,172.578 54.556,169.783 54.403,166.189 C 54.296,163.702 54.403,162.814 54.933,161.811 C 56.497,158.849 59.474,158.217 62.64,160.174 C 67.632,163.26 67.731,171.553 62.812,174.672 C 60.558,176.102 59.108,176.065 57.583,174.541 L 57.583,174.541 M 200.169,197.11 C 211.357,188.423 225.726,177.391 227.468,176.152 C 229.016,175.05 229.383,174.943 230.953,175.127 C 231.919,175.24 232.636,175.217 232.548,175.077 C 232.46,174.933 231.306,174.239 229.984,173.533 L 227.58,172.248 L 225.636,172.937 C 224.567,173.315 219.729,176.056 214.884,179.027 C 206.35,184.261 187.877,195.831 187.577,196.131 C 187.496,196.211 187.909,196.651 188.495,197.108 C 189.081,197.563 190.551,198.794 191.762,199.841 C 192.973,200.887 194.004,201.755 194.054,201.769 C 194.103,201.779 196.855,199.688 200.169,197.114 L 200.169,197.11 M 201.207,183.484 C 216.922,171.726 219.208,169.815 218.456,169.062 C 217.636,168.244 213.544,169.95 206.741,173.948 C 200.815,177.431 179.8,190.501 179.925,190.626 C 180.377,191.077 185.575,194.766 185.792,194.788 C 185.94,194.798 192.876,189.717 201.207,183.484 L 201.207,183.484 M 441.299,192.025 C 444.549,191.296 447.24,190.672 447.28,190.638 C 447.387,190.548 446.745,187.808 446.576,187.638 C 446.436,187.499 433.836,192.835 433.49,193.181 C 433.018,193.653 436.005,193.211 441.299,192.025 L 441.299,192.025 M 192.726,178.729 C 207.225,168.167 210.664,165.434 210.664,164.474 C 210.664,162.416 201.91,167.305 176.251,183.698 L 172.484,186.105 L 174.966,187.692 C 176.332,188.566 177.696,189.23 177.999,189.169 C 178.302,189.109 184.929,184.408 192.726,178.729 M 425.738,183.225 C 425.738,182.95 426.316,180.592 427.022,177.984 C 427.729,175.376 428.638,171.614 429.043,169.624 C 429.822,165.795 430.66,163.922 433.871,158.831 C 434.959,157.106 436.41,154.409 437.096,152.837 C 438.131,150.463 438.254,149.922 437.821,149.647 C 437.534,149.466 437.134,149.318 436.932,149.319 C 436.365,149.319 428.077,164.644 427.409,166.922 C 426.735,169.225 424.263,183.144 424.282,184.537 L 424.295,185.458 L 425.017,184.591 C 425.414,184.115 425.738,183.5 425.738,183.225 L 425.738,183.225 M 177.69,179.86 C 181.445,177.085 186.881,173.079 189.768,170.96 C 192.655,168.841 196.349,166.042 197.977,164.742 C 202.094,161.454 203.293,160.683 204.292,160.683 C 205.849,160.683 205.201,160.024 203.401,159.776 C 200.947,159.439 198.627,160.385 191.837,164.489 C 182.86,169.913 164.739,181.679 164.983,181.924 C 165.348,182.288 170.074,184.813 170.484,184.862 C 170.691,184.882 173.934,182.636 177.69,179.86 L 177.69,179.86 M 436.189,172.245 C 439.968,162.676 442.868,152.869 442.226,151.831 C 441.776,151.101 441.364,151.703 440.434,154.444 C 439.99,155.756 437.8,162.033 435.567,168.39 C 431.361,180.372 430.5,183.112 430.543,184.356 C 430.578,185.364 433.391,179.331 436.189,172.245 L 436.189,172.245 M 439.301,182.713 C 440.492,182.112 441.545,181.493 441.641,181.337 C 441.829,181.031 440.367,175.191 440.014,174.838 C 439.849,174.673 437.945,179.892 436.909,183.347 C 436.718,183.985 436.854,183.948 439.301,182.713 L 439.301,182.713 M 260.15,181.696 C 259.852,181.342 258.36,179.567 256.835,177.75 C 249.543,169.065 240.434,162.362 226.214,155.219 C 218.174,151.181 211.015,148.649 201.811,146.589 C 196.635,145.431 194.966,145.387 199.286,146.519 C 210.609,149.494 226.219,156.053 235.387,161.687 C 242.207,165.878 249.395,171.599 256.356,178.378 C 260.173,182.094 261.377,183.147 260.15,181.692 L 260.15,181.696 M 450.725,179.006 C 448.848,173.568 445.906,166.815 445.234,166.4 C 444.397,165.882 449.413,179.223 450.928,181.544 C 451.895,183.025 451.829,182.204 450.725,179.006 M 168.112,176.622 C 170.825,174.588 175.934,170.796 179.467,168.194 C 182.999,165.592 187.376,162.282 189.193,160.839 C 191.01,159.396 193.057,157.928 193.742,157.578 C 195.231,156.815 194.757,156.294 192.567,156.285 C 191.444,156.285 190.748,156.621 189.014,158.023 C 187.828,158.981 185.236,160.749 183.254,161.952 C 181.272,163.153 174.647,167.314 168.533,171.197 C 159.399,176.997 157.532,178.321 158.073,178.609 C 158.434,178.802 159.534,179.387 160.517,179.908 C 161.5,180.431 162.501,180.736 162.741,180.589 C 162.982,180.44 165.399,178.655 168.112,176.622 L 168.112,176.622 M 457.301,178.812 C 457.301,176.1 453.751,167.81 450.845,163.737 C 449.096,161.286 448.355,160.845 449.408,162.882 C 449.74,163.522 450.894,166.387 451.974,169.247 C 453.053,172.107 454.217,175.107 454.56,175.914 C 455.72,178.646 457.301,180.318 457.301,178.812 L 457.301,178.812 M 158.147,174.922 C 169.926,166.413 184.105,155.44 183.558,155.258 C 182.997,155.07 176.947,158.228 170.501,162.072 C 163.758,166.093 150.105,174.957 150.105,175.314 C 150.105,175.589 153.698,177.108 154.477,177.163 C 154.761,177.183 156.413,176.174 158.147,174.922 L 158.147,174.922 M 150.689,171.968 C 152.524,170.505 158.582,165.843 164.153,161.607 C 169.723,157.372 174.217,153.844 174.141,153.767 C 173.869,153.495 163.194,159.262 158.428,162.255 C 150.843,167.018 142.43,172.587 142.413,172.857 C 142.398,173.089 146.207,174.541 146.986,174.6 C 147.188,174.61 148.854,173.431 150.689,171.968 L 150.689,171.968 M 141.233,170.797 C 156.46,158.872 162.578,153.912 162.218,153.78 C 161.743,153.609 158.907,155.133 152.099,159.223 C 145.262,163.329 133.969,170.654 133.961,170.988 C 133.961,171.16 137.7,172.231 138.847,172.387 C 139.014,172.407 140.088,171.695 141.233,170.797 L 141.233,170.797 M 138.194,164.482 C 142.222,161.12 146.628,157.455 147.985,156.337 C 149.343,155.218 150.392,154.241 150.317,154.166 C 149.789,153.638 137.643,160.805 130.286,165.986 C 127.763,167.764 125.451,169.318 125.148,169.44 C 124.604,169.661 128.11,170.475 129.936,170.553 C 130.637,170.583 132.706,169.061 138.194,164.482 L 138.194,164.482 M 224.977,170.047 C 224.977,169.752 219.168,166.922 218.563,166.922 C 217.732,166.922 217.885,168.302 218.769,168.774 C 219.983,169.425 224.977,170.447 224.977,170.047 M 122.767,169.118 C 123.023,168.704 131.961,160.727 133.972,159.118 L 135.241,158.102 L 133.774,158.678 C 131.353,159.628 128.122,161.557 123.295,164.936 C 116.129,169.953 116.488,169.492 119.755,169.492 C 121.284,169.492 122.64,169.324 122.767,169.118 L 122.767,169.118 M 216.084,165.382 C 215.967,165.032 211.391,162.886 210.761,162.886 C 209.621,162.886 214.713,165.771 215.924,165.811 C 216.092,165.821 216.164,165.624 216.084,165.382 M 396.285,160.409 C 396.234,157.835 396.328,151.682 396.494,146.737 C 396.769,138.562 396.735,137.528 396.123,135.359 L 395.449,132.973 L 392.151,132.71 C 381.54,131.86 376.554,130.779 366.31,127.104 C 360.654,125.076 352.858,122.967 352.466,123.36 C 352.391,123.43 352.485,124.313 352.674,125.313 C 352.864,126.311 353.448,130.426 353.971,134.456 C 354.495,138.485 355.314,143.516 355.79,145.635 C 357.453,153.027 360.426,158.999 363.228,160.574 C 366.347,162.327 383.523,164.856 393.533,165.036 L 396.378,165.086 L 396.285,160.409 M 420.224,164.77 L 422.602,164.537 L 425.658,159.398 L 428.714,154.261 L 428.504,152.059 C 426.792,134.109 426.743,132.341 427.893,130.479 C 429.925,127.193 433.895,126.349 438.811,128.158 C 440.249,128.687 441.506,129.119 441.605,129.119 C 441.869,129.119 440.859,123.05 440.169,120.495 C 438.689,115.009 436.519,112.072 432.538,110.162 C 431.13,109.487 429.791,108.933 429.562,108.933 C 429.322,108.933 429.046,109.883 428.912,111.17 C 428.435,115.73 426.417,118.224 421.199,120.703 C 409.106,126.448 387.458,127.029 368.05,122.13 C 360.978,120.344 357.166,118.651 352.846,115.375 C 352.348,114.997 350.9,116.416 350.878,117.304 C 350.863,117.866 353.774,119.213 357.354,120.3 C 359.698,121.013 375.253,124.656 384.887,126.749 C 393.049,128.523 402.012,128.775 410.323,127.465 C 415.155,126.704 416.383,126.417 425.497,123.921 C 429.906,122.714 433.586,121.798 433.675,121.887 C 433.932,122.144 425.939,125.644 421.356,127.281 C 413.804,129.978 406.483,131.774 401.024,132.27 C 399.477,132.409 398.211,132.564 398.211,132.613 C 398.211,132.663 398.639,133.838 399.162,135.223 C 401.601,141.69 402.059,151.062 400.535,163.345 L 400.319,165.087 L 409.083,165.047 C 413.903,165.027 418.916,164.9 420.224,164.772 L 420.224,164.77 M 448.464,155.75 C 450.742,154.07 450.847,153.719 451.002,147.276 L 451.144,141.385 L 450.188,140.248 C 449.544,139.484 448.059,138.625 445.65,137.628 C 429.796,131.053 429.977,131.112 429.023,132.26 C 428.635,132.728 428.663,134.304 429.181,140.977 C 429.529,145.457 429.912,149.618 430.032,150.223 L 430.25,151.324 L 430.719,150.04 C 430.976,149.334 431.202,147.103 431.22,145.085 C 431.24,142.945 431.445,141.037 431.712,140.508 C 432.376,139.196 434.447,137.928 435.924,137.928 C 439.166,137.928 445.57,140.452 447.178,142.363 C 448.276,143.668 449.02,147.504 448.681,150.11 C 448.542,151.182 448.03,152.946 447.543,154.03 C 446.221,156.973 446.387,157.282 448.464,155.75 L 448.464,155.75 M 140.675,147.801 C 149.781,143.89 158.392,140.339 170.658,135.44 C 186.206,129.229 184.605,130.083 184.605,128.005 C 184.605,127.052 184.399,126.104 184.146,125.897 C 183.408,125.291 179.068,124.088 171.209,122.313 C 161.877,120.204 148.068,117.132 146.571,116.833 L 145.423,116.602 L 144.78,119.223 C 144.059,122.169 142.13,126.311 138.761,132.156 C 135.422,137.947 135.347,138.186 135.189,143.617 C 135.113,146.241 134.967,148.76 134.864,149.214 C 134.759,149.674 134.852,150.04 135.071,150.04 C 135.288,150.04 137.81,149.033 140.675,147.801 L 140.675,147.801 M 446.16,144.724 C 445.958,144.198 439.964,141.069 438.492,140.722 C 437.518,140.492 437.482,140.535 437.482,141.962 L 437.482,143.439 L 440.678,144.997 C 442.436,145.853 444.377,147.058 444.991,147.673 L 446.107,148.794 L 446.22,146.984 C 446.281,145.987 446.255,144.971 446.161,144.724 L 446.16,144.724 M 195.883,145.414 C 195.761,145.292 195.445,145.278 195.18,145.384 C 194.887,145.501 194.974,145.587 195.402,145.605 C 195.789,145.625 196.005,145.535 195.883,145.413 L 195.883,145.414 M 194.048,145.046 C 193.926,144.925 193.61,144.912 193.345,145.016 C 193.052,145.134 193.139,145.221 193.567,145.238 C 193.954,145.248 194.17,145.168 194.048,145.045 L 194.048,145.046 M 335.347,134.594 C 337.086,134.142 339.604,133.824 341.782,133.779 L 345.361,133.709 L 345.268,127.654 C 345.161,120.615 345.493,119.205 348.178,115.283 L 349.81,112.899 L 349.214,106.972 C 348.228,97.169 348.081,90.687 348.795,88.546 C 350.19,84.36 354.49,80.661 360.774,78.235 C 362.692,77.495 364.3,76.863 364.347,76.83 C 364.395,76.8 363.547,74.471 362.464,71.658 C 354.288,50.444 344.526,34.053 337.153,29.159 C 336.075,28.443 334.184,27.578 332.95,27.235 C 330.859,26.653 330.538,26.652 328.216,27.215 C 325.378,27.899 305.446,37.65 297.096,42.438 C 292.687,44.966 291.967,45.506 292.017,46.24 C 292.088,47.255 295.893,71.769 296.874,77.525 C 297.545,81.462 297.581,81.549 299.075,82.789 C 299.91,83.483 301.311,84.986 302.188,86.127 C 304.516,89.16 310.112,97.64 312.102,101.152 C 313.561,103.727 317.567,113.197 320.375,120.708 C 320.983,122.336 321.397,122.874 322.412,123.358 C 324.652,124.426 326.552,127.861 328.674,134.678 L 329.317,136.744 L 330.904,136.042 C 331.777,135.656 333.776,135.007 335.347,134.599 L 335.347,134.594 M 83.124,131.457 C 90.543,130.51 101.013,128.173 112.769,124.838 C 115.347,124.107 117.399,123.45 117.329,123.38 C 117.258,123.31 114.06,123.989 110.221,124.889 C 94.77,128.514 86.713,129.628 75.967,129.627 C 62.899,129.627 53.315,127.769 42.775,123.198 C 38.968,121.547 39.247,122.13 43.302,124.304 C 50.238,128.019 61.031,131.356 68.81,132.191 C 71.13,132.439 78.313,132.071 83.124,131.457 L 83.124,131.457 M 82.626,124.326 C 91.169,123.451 102.133,120.951 121.156,115.54 C 134.589,111.719 136.709,110.75 139.039,107.363 C 141.141,104.308 141.394,102.942 141.632,93.335 C 141.752,88.491 141.83,84.479 141.805,84.421 C 141.746,84.285 124.097,88.239 121.586,88.951 C 119.83,89.449 119.049,90.12 111.86,97.31 C 101.548,107.623 94.959,112.489 86.983,115.682 C 79.85,118.537 74.721,119.374 65.943,119.116 C 60.496,118.956 59.056,118.781 55.397,117.83 C 48.278,115.981 41.805,112.759 38.021,109.182 C 37.236,108.44 36.534,107.832 36.461,107.832 C 36.052,107.832 36.451,109.733 37.198,111.335 C 38.302,113.705 41.467,116.545 45.112,118.436 C 50.203,121.077 58.201,123.446 64.957,124.316 C 68.468,124.768 78.263,124.773 82.627,124.326 L 82.626,124.326 M 118.809,123.026 C 118.687,122.903 118.371,122.891 118.106,122.996 C 117.813,123.112 117.9,123.2 118.327,123.217 C 118.714,123.227 118.931,123.147 118.809,123.024 L 118.809,123.026 M 185.696,120.814 C 187.198,119.55 188.363,117.193 189.684,112.742 C 191.681,106.017 192.572,100.249 191.964,97.989 C 191.132,94.903 188.926,93.436 183.063,92.07 C 165.365,87.948 151.109,84.899 146.068,84.162 L 144.417,83.919 L 144.523,94.683 C 144.703,112.794 144.934,113.177 157.564,116.245 C 167.796,118.731 181.711,121.635 183.935,121.748 C 184.273,121.768 185.065,121.345 185.696,120.814 L 185.696,120.814 M 400.711,121.398 C 410.742,120.688 418.708,118.652 421.912,115.978 C 422.893,115.159 424.063,113.375 423.794,113.107 C 423.68,112.994 422.539,113.319 421.259,113.831 C 418.211,115.05 414.418,116.065 409.222,117.05 C 405.818,117.695 403.208,117.882 395.733,118.017 C 381.509,118.271 374.874,117.507 365.179,114.498 C 357.988,112.266 355.563,112.197 357.649,114.283 C 360.06,116.693 368.436,119.224 378.759,120.663 C 387.215,121.841 392.128,122.005 400.711,121.398 L 400.711,121.398 M 314.897,120.484 C 314.897,120.377 314.417,119.339 313.83,118.176 L 312.763,116.061 L 309.15,115.652 C 306.057,115.301 289.684,111.998 254.89,104.705 C 250.449,103.775 245.659,102.783 244.246,102.504 C 242.833,102.224 238.043,101.236 233.602,100.31 C 229.161,99.385 224.372,98.397 222.959,98.115 C 221.546,97.834 216.439,96.768 211.61,95.746 C 206.782,94.725 202.766,93.954 202.687,94.033 C 202.608,94.113 202.321,95.017 202.05,96.045 L 201.557,97.913 L 202.899,98.263 C 203.637,98.455 214.811,100.697 227.73,103.244 C 250.039,107.643 293.119,116.279 307.374,119.21 C 314.796,120.736 314.897,120.753 314.897,120.484 L 314.897,120.484 M 77.144,116.141 C 83.611,114.475 88.315,111.774 98.48,103.891 C 111.541,93.762 116.349,88.096 115.865,83.404 C 115.396,78.865 110.726,72.288 105.735,69.137 C 104.266,68.209 101.292,66.952 101.292,67.258 C 101.292,67.328 102.018,67.817 102.907,68.337 C 105.145,69.649 107.359,72.285 108.291,74.746 C 108.946,76.479 109.046,77.353 108.898,80.063 C 108.741,82.928 108.547,83.655 107.231,86.302 C 104.303,92.193 98.816,97.445 92.019,100.864 C 86.417,103.681 83.959,104.314 78.536,104.332 C 74.261,104.342 73.799,104.282 71.746,103.316 C 67.646,101.398 65.701,98.546 65.404,94.016 C 64.81,84.956 72.587,74.081 83.331,68.949 C 86.852,67.268 91.434,66.011 94.135,65.986 C 95.719,65.976 95.87,65.916 95.236,65.536 C 94.813,65.286 92.478,65.042 89.73,64.961 C 85.965,64.848 84.031,64.981 80.555,65.613 C 74.414,66.721 68.33,68.139 67.193,68.727 C 65.704,69.498 57.965,76.69 52.358,82.517 C 41.61,93.684 38.311,100.075 40.722,105.057 C 43.235,110.248 52.834,115.396 62.987,116.996 C 66.609,117.567 73.141,117.173 77.144,116.141 L 77.144,116.141 M 402.799,114.064 C 417.733,112.681 422.801,110.186 422.801,104.219 C 422.801,101.453 422.471,101.354 417.597,102.659 C 400.174,107.325 374.846,106.136 359.905,99.952 C 358.186,99.239 356.522,98.657 356.208,98.657 C 355.225,98.657 355.426,103.952 356.479,105.814 C 358.49,109.371 367.063,112.245 380.411,113.834 C 385.694,114.465 397.209,114.582 402.799,114.064 L 402.799,114.064 M 309.636,110.924 C 310.46,110.101 310.559,109.749 310.408,108.181 C 310.313,107.191 309.717,105.346 309.083,104.08 C 307.992,101.898 299.571,89.806 296.725,86.332 C 294.319,83.396 293.601,83.152 278.542,80.147 C 247.553,73.963 212.535,67.093 212.008,67.093 C 211.327,67.093 206.226,73.606 203.474,77.989 C 201.339,81.39 200.495,83.663 200.144,86.96 L 199.925,89.028 L 203.918,89.971 C 206.114,90.489 213.031,92.003 219.289,93.335 C 247.718,99.382 294.309,109.406 299.299,110.549 C 306.266,112.145 308.341,112.22 309.636,110.924 L 309.636,110.924 M 398.945,103.422 C 409.514,102.629 418.332,100.469 422.951,97.54 C 424.797,96.37 426.177,94.059 425.828,92.725 C 425.724,92.326 424.794,91.368 423.761,90.597 C 419.66,87.531 412.169,84.503 404.261,82.716 L 400.322,81.825 L 398.491,83.084 C 396.546,84.422 395.411,84.577 391.495,84.036 L 389.734,83.792 L 390.687,82.508 L 391.639,81.224 L 389.722,80.91 C 387.528,80.551 377.634,81.155 376.09,81.742 C 374.656,82.287 374.84,82.736 376.931,83.797 C 378.5,84.591 378.806,84.647 378.989,84.17 C 379.265,83.452 380.369,83.447 380.961,84.16 C 381.212,84.462 381.64,84.71 381.911,84.71 C 382.182,84.71 382.562,85.007 382.756,85.369 C 383.024,85.869 382.851,86.411 382.035,87.626 C 380.708,89.601 380.689,90.315 381.937,91.297 C 383.636,92.634 386.663,93.307 390.871,93.285 C 395.426,93.265 397.626,92.507 399.885,90.193 C 401.536,88.502 401.634,88.492 408.428,89.3 C 419.299,90.593 420.557,91.035 420.588,93.561 C 420.623,96.489 414.953,99.382 405.377,101.321 C 401.779,102.049 400.234,102.138 391.421,102.133 C 380.646,102.123 376.525,101.626 369.78,99.501 C 361.134,96.777 357.208,92.427 359.463,88.066 C 360.07,86.893 360.068,86.872 359.369,87.245 C 358.42,87.754 356.756,89.755 356.306,90.928 C 354.616,95.345 362.85,100.048 376.212,102.298 C 384.474,103.689 391.052,104.013 398.945,103.422 L 398.945,103.422 M 386.151,92.272 C 384.003,91.724 382.193,90.259 382.542,89.349 C 383.16,87.74 388.463,86.869 392.996,87.634 C 397.407,88.377 398.823,90.385 395.933,91.798 C 394.115,92.687 388.795,92.944 386.151,92.272 M 412.639,98.323 C 412.83,98.132 412.608,97.888 412.103,97.738 C 411.629,97.595 408.558,96.404 405.279,95.091 C 401.018,93.384 399.056,92.77 398.398,92.934 C 397.891,93.062 397.478,93.287 397.48,93.434 C 397.48,93.581 398.843,94.252 400.507,94.926 C 402.171,95.598 404.772,96.796 406.285,97.589 C 408.636,98.818 409.277,99.001 410.675,98.839 C 411.575,98.735 412.459,98.502 412.639,98.323 L 412.639,98.323 M 374.635,97.202 C 377.981,95.619 382.062,93.177 382.062,92.757 C 382.062,91.777 380.484,92.18 375.271,94.488 C 372.144,95.872 369.585,97.134 369.584,97.292 C 369.583,97.621 370.965,98.232 371.786,98.266 C 372.088,98.276 373.371,97.8 374.635,97.202 M 82.116,94.006 C 92.933,90.228 99.891,78.162 93.892,73.585 C 90.098,70.692 83.781,71.779 77.231,76.454 C 69.807,81.751 67.085,90.171 71.666,93.666 C 74.07,95.5 77.519,95.612 82.116,94.006 L 82.116,94.006 M 192.68,88.816 C 192.68,88.231 192.113,88.098 188.0,87.713 C 182.059,87.158 173.161,85.664 167.722,84.31 C 155.908,81.366 151.262,76.097 149.706,63.872 C 149.344,61.031 149.175,60.496 148.68,60.637 C 148.354,60.727 146.683,61.075 144.967,61.405 C 139.855,62.386 139.955,62.285 141.476,64.945 C 142.631,66.965 142.753,69.962 141.719,70.897 C 140.638,71.876 134.252,73.334 131.065,73.329 C 126.438,73.319 123.225,71.302 122.7,68.065 C 122.403,66.234 123.114,65.302 125.705,64.127 C 129.577,62.372 129.396,62.207 122.946,61.598 C 115.366,60.885 111.961,60.092 108.796,58.305 L 106.873,57.22 L 105.459,59.1 C 104.681,60.135 103.243,61.53 102.264,62.2 C 101.25,62.895 100.697,63.477 100.98,63.554 C 101.252,63.624 102.796,64.055 104.411,64.5 C 107.924,65.468 110.293,66.907 112.469,69.394 C 114.722,71.97 117.684,77.479 118.976,81.497 C 119.577,83.364 120.122,84.945 120.188,85.011 C 120.254,85.071 122.737,84.451 125.706,83.62 C 137.734,80.25 144.242,78.936 146.844,79.352 C 147.597,79.473 149.919,80.153 152.004,80.865 C 159.648,83.474 164.308,84.537 180.935,87.464 C 186.284,88.405 190.73,89.244 190.814,89.328 C 190.898,89.408 191.352,89.481 191.823,89.481 C 192.406,89.481 192.68,89.269 192.68,88.816 L 192.68,88.816 M 370.101,86.582 C 370.91,85.688 370.638,85.542 367.207,85.032 C 364.528,84.633 364.341,84.652 363.608,85.384 C 362.604,86.388 362.949,86.676 365.483,86.948 C 369.053,87.331 369.451,87.3 370.101,86.582 L 370.101,86.582 M 396.631,82.336 L 397.66,81.43 L 396.192,81.38 C 394.148,81.31 393.703,81.39 393.073,82.005 C 392.583,82.48 392.583,82.578 393.073,82.888 C 394.049,83.505 395.574,83.27 396.631,82.341 L 396.631,82.336 M 293.61,79.098 C 293.61,78.838 292.638,72.438 291.45,64.876 C 290.262,57.315 289.176,50.013 289.035,48.65 C 288.74,45.778 289.455,46.136 282.233,45.248 C 279.507,44.913 269.297,43.416 259.542,41.92 C 249.787,40.424 240.846,39.2 239.673,39.2 C 237.783,39.2 237.28,39.374 235.264,40.719 C 230.66,43.794 221.287,53.606 216.049,60.836 C 215.106,62.137 214.458,63.325 214.609,63.474 C 214.947,63.807 245.784,70.167 282.967,77.572 C 294.119,79.793 293.61,79.72 293.61,79.098 L 293.61,79.098 M 189.376,73.375 C 189.376,67.641 189.362,67.542 188.551,67.324 C 188.096,67.203 187.212,67.101 186.585,67.099 L 185.445,67.099 L 185.211,69.576 C 185.083,70.939 184.976,73.663 184.975,75.632 L 184.975,79.21 L 187.177,79.21 L 189.379,79.21 L 189.376,73.375 M 193.06,77.534 C 194.663,75.204 194.945,73.969 194.668,70.488 L 194.428,67.461 L 193.021,67.461 L 191.614,67.461 L 191.504,73.334 C 191.444,76.563 191.514,79.205 191.653,79.205 C 191.794,79.205 192.428,78.453 193.06,77.534 L 193.06,77.534 M 178.079,66.683 C 177.934,66.549 175.338,65.925 172.31,65.295 C 169.282,64.663 164.947,63.587 162.675,62.903 C 160.404,62.218 158.49,61.767 158.422,61.899 C 158.057,62.6 159.021,70.717 159.633,72.1 C 161.084,75.381 166.813,77.542 176.714,78.543 L 177.815,78.654 L 178.079,72.788 C 178.223,69.562 178.223,66.815 178.079,66.683 L 178.079,66.683 M 182.902,77.462 C 183.027,76.704 183.131,74.08 183.133,71.628 C 183.133,66.905 183.069,66.726 181.272,66.726 C 180.626,66.726 180.568,67.021 180.571,70.305 C 180.571,72.272 180.679,74.998 180.807,76.36 C 181.019,78.606 181.117,78.838 181.858,78.838 C 182.516,78.838 182.718,78.572 182.902,77.462 L 182.902,77.462 M 198.013,68.042 C 198.256,67.122 198.206,67.006 197.659,67.216 C 197.31,67.35 196.772,67.461 196.464,67.461 C 195.981,67.461 195.94,67.977 196.172,71.223 C 196.319,73.291 196.617,75.397 196.833,75.901 C 197.16,76.665 197.269,76.17 197.479,72.965 C 197.617,70.846 197.858,68.63 198.013,68.042 L 198.013,68.042 M 135.583,66.4 C 137.69,65.658 138.371,64.87 137.652,64.005 C 137.274,63.549 136.447,63.427 133.82,63.444 C 128.301,63.474 126.209,64.814 129.179,66.408 C 130.759,67.255 133.161,67.252 135.583,66.398 L 135.583,66.4 M 371.936,62.245 C 372.257,60.69 372.52,58.493 372.52,57.364 C 372.52,53.09 370.66,47.641 367.779,43.472 C 363.661,37.513 355.62,31.71 346.577,28.172 C 346.137,28.0 347.739,29.765 350.138,32.095 C 360.241,41.905 366.449,52.095 370.566,65.625 C 370.839,66.522 371.274,65.451 371.936,62.245 L 371.936,62.245 M 197.084,63.793 C 204.741,63.215 205.225,63.116 204.942,62.194 C 204.809,61.759 204.657,61.355 204.604,61.293 C 204.551,61.233 201.971,61.543 198.869,61.983 C 191.555,63.022 180.99,63.106 175.797,62.165 C 169.87,61.092 165.617,59.366 162.938,56.945 C 162.138,56.222 161.483,55.487 161.483,55.313 C 161.483,54.85 162.299,54.699 171.174,53.523 C 179.102,52.471 179.233,52.466 180.545,53.135 C 183.303,54.542 186.044,55.085 189.417,54.893 C 194.931,54.579 197.78,52.444 196.828,49.342 L 196.443,48.089 L 200.617,47.233 C 202.913,46.762 204.791,46.266 204.791,46.132 C 204.791,45.802 199.686,44.456 196.717,44.002 C 185.674,42.314 169.519,44.106 162.195,47.825 C 159.844,49.02 157.858,50.903 157.471,52.308 C 155.422,59.727 175.163,65.451 197.084,63.793 L 197.084,63.793 M 185.726,52.023 C 183.878,51.648 182.77,50.797 183.361,50.206 C 183.568,49.999 184.772,49.647 186.037,49.425 C 189.246,48.86 193.414,49.728 193.414,50.96 C 193.414,51.807 188.209,52.526 185.726,52.023 L 185.726,52.023 M 87.044,58.837 L 86.893,56.454 L 89.71,55.116 C 93.291,53.416 92.974,52.98 88.16,52.98 C 82.243,52.98 78.328,54.356 75.676,57.368 C 74.859,58.296 74.021,59.542 73.814,60.138 L 73.436,61.221 L 80.316,61.221 L 87.196,61.221 L 87.044,58.837 M 99.243,57.802 C 101.008,56.511 98.406,54.604 94.731,54.496 C 93.054,54.446 92.389,54.586 91.79,55.13 C 90.926,55.909 90.888,56.049 91.346,56.771 C 92.101,57.963 97.974,58.729 99.243,57.802 M 143.821,54.827 C 147.51,54.183 149.974,53.101 150.53,51.882 C 151.129,50.567 150.785,50.414 148.745,51.093 C 144.472,52.512 141.36,52.822 131.387,52.823 C 121.078,52.823 117.721,52.46 113.513,50.885 C 112.415,50.475 111.428,50.228 111.318,50.337 C 110.919,50.738 113.171,52.411 115.062,53.118 C 117.687,54.1 122.002,54.942 126.432,55.337 C 131.06,55.75 140.042,55.487 143.821,54.827 L 143.821,54.827 M 141.07,50.893 C 146.891,49.743 150.839,47.823 150.839,46.141 C 150.839,45.134 148.808,43.686 146.314,42.916 C 142.276,41.669 137.428,41.278 129.036,41.523 C 118.296,41.837 113.256,42.909 111.757,45.197 C 110.873,46.545 111.539,47.494 114.26,48.767 C 120.736,51.798 131.978,52.689 141.07,50.893 M 291.152,41.637 C 294.625,39.938 303.865,32.619 303.064,32.201 C 302.81,32.069 301.281,31.759 299.666,31.513 C 296.427,31.016 271.747,26.301 267.846,25.433 C 262.935,24.339 259.396,24.915 253.829,27.71 C 249.25,30.01 241.86,35.023 241.861,35.829 C 241.861,35.968 242.232,36.104 242.686,36.134 C 243.393,36.174 271.044,40.619 280.948,42.276 C 285.734,43.077 288.57,42.901 291.152,41.637 L 291.152,41.637 M 314.439,26.653 C 315.498,26.055 316.365,25.537 316.364,25.501 C 316.364,25.471 315.239,25.397 313.864,25.354 C 312.49,25.314 310.26,25.04 308.91,24.757 C 306.118,24.171 305.787,24.475 307.465,26.082 C 308.754,27.315 310.832,28.214 311.778,27.947 C 312.181,27.833 313.379,27.251 314.439,26.653 M 295.759,25.853 L 298.091,24.654 L 297.148,24.036 C 296.63,23.695 295.91,23.418 295.55,23.419 C 294.647,23.419 290.307,25.507 290.307,25.94 C 290.307,26.316 291.958,27.022 292.876,27.041 C 293.179,27.051 294.476,26.513 295.759,25.853 M 319.595,22.552 C 325.18,19.684 335.123,13.872 334.684,13.733 C 334.399,13.643 333.119,13.23 331.84,12.817 L 329.513,12.065 L 325.967,13.845 C 321.268,16.206 310.03,22.283 309.614,22.689 C 309.424,22.874 309.733,23.11 310.348,23.246 C 310.933,23.376 311.576,23.549 311.778,23.629 C 311.98,23.709 313.433,23.699 315.008,23.609 C 317.064,23.488 318.357,23.191 319.595,22.554 L 319.595,22.552 M 276.233,19.579 L 278.012,17.942 L 275.259,17.902 C 273.745,17.882 271.577,17.74 270.44,17.598 C 267.847,17.273 267.439,17.39 267.933,18.311 C 268.356,19.103 269.969,20.022 272.14,20.708 C 274.267,21.38 274.287,21.375 276.233,19.585 L 276.233,19.579 M 280.413,14.419 C 281.734,13.413 285.33,11.186 288.404,9.47 L 293.993,6.35 L 292.465,5.9 L 290.936,5.449 L 281.086,10.488 C 275.669,13.258 271.233,15.639 271.229,15.777 C 271.216,16.191 272.729,16.384 275.443,16.315 C 277.918,16.255 278.099,16.183 280.413,14.419" id="path17" style="fill:#000000;stroke-width:1"/>
</svg>
