<?xml version="1.0" encoding="UTF-8"?>
<!--Generator: Apple Native CoreSVG 341-->
<!DOCTYPE svg
PUBLIC "-//W3C//DTD SVG 1.1//EN"
       "http://www.w3.org/Graphics/SVG/1.1/DTD/svg11.dtd">
<svg version="1.1" xmlns="http://www.w3.org/2000/svg" xmlns:xlink="http://www.w3.org/1999/xlink" viewBox="0 0 3300 2200">
 <!--glyph: "", point size: 100.0, font version: "21.1d1e1", template writer version: "138.0.0"-->
 <style>.defaults {-sfsymbols-variable-value-mode:color;-sfsymbols-draw-reverses-motion-groups:true}

.monochrome-0 {-sfsymbols-motion-group:0;-sfsymbols-layer-tags:-2a412725e03d0cf4}
.monochrome-1 {-sfsymbols-motion-group:0;-sfsymbols-layer-tags:-2a412725e03d0cf4}
.monochrome-2 {-sfsymbols-motion-group:0;-sfsymbols-layer-tags:-2a412725e03d0cf4}
.monochrome-3 {-sfsymbols-motion-group:0;-sfsymbols-layer-tags:-2a412725e03d0cf4}

.multicolor-0:tintColor {-sfsymbols-motion-group:0;-sfsymbols-layer-tags:-2a412725e03d0cf4}
.multicolor-1:tintColor {-sfsymbols-motion-group:0;-sfsymbols-layer-tags:-2a412725e03d0cf4}
.multicolor-2:tintColor {-sfsymbols-motion-group:0;-sfsymbols-layer-tags:-2a412725e03d0cf4}
.multicolor-3:tintColor {-sfsymbols-motion-group:0;-sfsymbols-layer-tags:-2a412725e03d0cf4}

.hierarchical-0:primary {-sfsymbols-motion-group:0;-sfsymbols-layer-tags:-2a412725e03d0cf4}
.hierarchical-1:secondary {-sfsymbols-motion-group:0;-sfsymbols-layer-tags:-2a412725e03d0cf4}
.hierarchical-2:tertiary {-sfsymbols-motion-group:0;-sfsymbols-layer-tags:-2a412725e03d0cf4}
.hierarchical-3:primary {-sfsymbols-motion-group:0;-sfsymbols-layer-tags:-2a412725e03d0cf4}

.SFSymbolsPreviewWireframe {fill:none;opacity:1.0;stroke:black;stroke-width:0.5}
</style>
 <g id="Notes">
  <rect height="2200" id="artboard" style="fill:white;opacity:1" width="3300" x="0" y="0"/>
  <line style="fill:none;stroke:black;opacity:1;stroke-width:0.5;" x1="263" x2="3036" y1="292" y2="292"/>
  <text style="stroke:none;fill:black;font-family:sans-serif;font-size:13;font-weight:bold;" transform="matrix(1 0 0 1 263 322)">Weight/Scale Variations</text>
  <text style="stroke:none;fill:black;font-family:sans-serif;font-size:13;text-anchor:middle;" transform="matrix(1 0 0 1 559.711 322)">Ultralight</text>
  <text style="stroke:none;fill:black;font-family:sans-serif;font-size:13;text-anchor:middle;" transform="matrix(1 0 0 1 856.422 322)">Thin</text>
  <text style="stroke:none;fill:black;font-family:sans-serif;font-size:13;text-anchor:middle;" transform="matrix(1 0 0 1 1153.13 322)">Light</text>
  <text style="stroke:none;fill:black;font-family:sans-serif;font-size:13;text-anchor:middle;" transform="matrix(1 0 0 1 1449.84 322)">Regular</text>
  <text style="stroke:none;fill:black;font-family:sans-serif;font-size:13;text-anchor:middle;" transform="matrix(1 0 0 1 1746.56 322)">Medium</text>
  <text style="stroke:none;fill:black;font-family:sans-serif;font-size:13;text-anchor:middle;" transform="matrix(1 0 0 1 2043.27 322)">Semibold</text>
  <text style="stroke:none;fill:black;font-family:sans-serif;font-size:13;text-anchor:middle;" transform="matrix(1 0 0 1 2339.98 322)">Bold</text>
  <text style="stroke:none;fill:black;font-family:sans-serif;font-size:13;text-anchor:middle;" transform="matrix(1 0 0 1 2636.69 322)">Heavy</text>
  <text style="stroke:none;fill:black;font-family:sans-serif;font-size:13;text-anchor:middle;" transform="matrix(1 0 0 1 2933.4 322)">Black</text>
  <line style="fill:none;stroke:black;opacity:1;stroke-width:0.5;" x1="263" x2="3036" y1="1903" y2="1903"/>
  <g transform="matrix(0.2 0 0 0.2 263 1933)">
   <path d="m46.2402 4.15039c21.7773 0 39.4531-17.627 39.4531-39.4043s-17.6758-39.4043-39.4531-39.4043c-21.7285 0-39.4043 17.627-39.4043 39.4043s17.6758 39.4043 39.4043 39.4043Zm0-7.42188c-17.6758 0-31.9336-14.3066-31.9336-31.9824s14.2578-31.9824 31.9336-31.9824 31.9824 14.3066 31.9824 31.9824-14.3066 31.9824-31.9824 31.9824Zm3.61328-17.7734v-28.4668c0-2.24609-1.46484-3.75977-3.71094-3.75977-2.14844 0-3.61328 1.51367-3.61328 3.75977v28.4668c0 2.19727 1.46484 3.71094 3.61328 3.71094 2.24609 0 3.71094-1.51367 3.71094-3.71094Zm-17.8223-10.5957h28.418c2.19727 0 3.71094-1.46484 3.71094-3.61328 0-2.19727-1.51367-3.71094-3.71094-3.71094h-28.418c-2.24609 0-3.75977 1.51367-3.75977 3.71094 0 2.14844 1.51367 3.61328 3.75977 3.61328Z"/>
  </g>
  <g transform="matrix(0.2 0 0 0.2 281.506 1933)">
   <path d="m58.5449 14.5508c27.4902 0 49.8047-22.3145 49.8047-49.8047s-22.3145-49.8047-49.8047-49.8047-49.8047 22.3145-49.8047 49.8047 22.3145 49.8047 49.8047 49.8047Zm0-8.30078c-22.9492 0-41.5039-18.5547-41.5039-41.5039s18.5547-41.5039 41.5039-41.5039 41.5039 18.5547 41.5039 41.5039-18.5547 41.5039-41.5039 41.5039Zm4.05273-23.0957v-36.9141c0-2.49023-1.70898-4.19922-4.15039-4.19922-2.39258 0-4.05273 1.70898-4.05273 4.19922v36.9141c0 2.44141 1.66016 4.15039 4.05273 4.15039 2.44141 0 4.15039-1.66016 4.15039-4.15039Zm-22.5586-14.4043h36.9629c2.44141 0 4.15039-1.61133 4.15039-4.00391 0-2.44141-1.70898-4.15039-4.15039-4.15039h-36.9629c-2.49023 0-4.15039 1.70898-4.15039 4.15039 0 2.39258 1.66016 4.00391 4.15039 4.00391Z"/>
  </g>
  <g transform="matrix(0.2 0 0 0.2 304.924 1933)">
   <path d="m74.8535 28.3203c35.1074 0 63.623-28.4668 63.623-63.5742s-28.5156-63.623-63.623-63.623-63.5742 28.5156-63.5742 63.623 28.4668 63.5742 63.5742 63.5742Zm0-9.08203c-30.127 0-54.4922-24.3652-54.4922-54.4922s24.3652-54.4922 54.4922-54.4922 54.4922 24.3652 54.4922 54.4922-24.3652 54.4922-54.4922 54.4922Zm4.44336-30.3223v-48.4863c0-2.73438-1.85547-4.63867-4.54102-4.63867-2.58789 0-4.44336 1.9043-4.44336 4.63867v48.4863c0 2.68555 1.85547 4.58984 4.44336 4.58984 2.68555 0 4.54102-1.85547 4.54102-4.58984Zm-28.7109-19.7754h48.4863c2.68555 0 4.58984-1.80664 4.58984-4.39453 0-2.73438-1.85547-4.58984-4.58984-4.58984h-48.4863c-2.73438 0-4.58984 1.85547-4.58984 4.58984 0 2.58789 1.85547 4.39453 4.58984 4.39453Z"/>
  </g>
  <text style="stroke:none;fill:black;font-family:sans-serif;font-size:13;font-weight:bold;" transform="matrix(1 0 0 1 263 1953)">Design Variations</text>
  <text style="stroke:none;fill:black;font-family:sans-serif;font-size:13;" transform="matrix(1 0 0 1 263 1971)">Symbols are supported in up to nine weights and three scales.</text>
  <text style="stroke:none;fill:black;font-family:sans-serif;font-size:13;" transform="matrix(1 0 0 1 263 1989)">For optimal layout with text and other symbols, vertically align</text>
  <text style="stroke:none;fill:black;font-family:sans-serif;font-size:13;" transform="matrix(1 0 0 1 263 2007)">symbols with the adjacent text.</text>
  <line style="fill:none;stroke:#00AEEF;stroke-width:0.5;opacity:1.0;" x1="776" x2="776" y1="1919" y2="1933"/>
  <g transform="matrix(0.2 0 0 0.2 776 1933)">
   <path d="m16.5527 0.78125c2.58789 0 3.85742-0.976562 4.78516-3.71094l20.5566-57.5195h0.244141l20.6055 57.5195c0.927734 2.73438 2.19727 3.71094 4.73633 3.71094 2.58789 0 4.24805-1.5625 4.24805-4.00391 0-0.830078-0.146484-1.61133-0.537109-2.63672l-22.9004-60.9863c-1.12305-2.97852-3.125-4.49219-6.25-4.49219-3.02734 0-5.07812 1.46484-6.15234 4.44336l-22.9004 61.084c-0.390625 1.02539-0.537109 1.80664-0.537109 2.63672 0 2.44141 1.5625 3.95508 4.10156 3.95508Zm10.2051-20.9473h30.6641c2.00195 0 3.66211-1.66016 3.66211-3.66211 0-2.05078-1.66016-3.66211-3.66211-3.66211h-30.6641c-2.00195 0-3.66211 1.61133-3.66211 3.66211 0 2.00195 1.66016 3.66211 3.66211 3.66211Z"/>
  </g>
  <line style="fill:none;stroke:#00AEEF;stroke-width:0.5;opacity:1.0;" x1="792.836" x2="792.836" y1="1919" y2="1933"/>
  <text style="stroke:none;fill:black;font-family:sans-serif;font-size:13;font-weight:bold;" transform="matrix(1 0 0 1 776 1953)">Margins</text>
  <text style="stroke:none;fill:black;font-family:sans-serif;font-size:13;" transform="matrix(1 0 0 1 776 1971)">Leading and trailing margins on the left and right side of each symbol</text>
  <text style="stroke:none;fill:black;font-family:sans-serif;font-size:13;" transform="matrix(1 0 0 1 776 1989)">can be adjusted by modifying the x-location of the margin guidelines.</text>
  <text style="stroke:none;fill:black;font-family:sans-serif;font-size:13;" transform="matrix(1 0 0 1 776 2007)">Modifications are automatically applied proportionally to all</text>
  <text style="stroke:none;fill:black;font-family:sans-serif;font-size:13;" transform="matrix(1 0 0 1 776 2025)">scales and weights.</text>
  <g transform="matrix(0.2 0 0 0.2 1289 1933)">
   <path d="m14.209 13.1348 7.86133 7.86133c4.29688 4.39453 9.32617 4.10156 13.8672-1.02539l60.6934-68.2129-4.88281-4.88281-60.2539 67.6758c-1.80664 1.95312-3.4668 2.44141-5.81055 0.0976562l-5.17578-5.12695c-2.29492-2.29492-1.80664-3.95508 0.195312-5.81055l67.4805-62.1582-4.88281-4.83398-68.0664 62.5977c-4.98047 4.58984-5.32227 9.47266-1.02539 13.8184Zm44.873-97.4609c-2.05078 2.00195-2.24609 4.88281-1.07422 6.78711 1.12305 1.80664 3.4668 3.02734 6.5918 2.24609 5.85938-1.66016 12.5977-2.39258 18.8965 0.927734l-2.68555 7.12891c-1.61133 4.00391-0.732422 6.88477 1.70898 9.42383l10.2539 10.3027c2.34375 2.39258 4.54102 2.44141 7.08008 1.95312l4.44336-0.732422 2.58789 2.53906-0.195312 2.24609c-0.0976562 2.29492 0.537109 4.29688 2.7832 6.49414l3.36914 3.32031c2.29492 2.29492 5.51758 2.49023 7.8125 0.195312l12.9883-13.0371c2.29492-2.34375 2.14844-5.37109-0.195312-7.66602l-3.41797-3.41797c-2.19727-2.19727-4.05273-3.02734-6.34766-2.88086l-2.34375 0.244141-2.44141-2.44141 1.02539-4.6875c0.634766-2.73438-0.244141-4.98047-2.88086-7.61719l-11.2793-11.1816c-12.9395-12.8418-35.5957-11.0352-46.6797-0.146484Zm7.08008 2.05078c8.78906-6.39648 25.9766-5.66406 33.6914 1.95312l12.3047 12.207c1.02539 1.02539 1.2207 1.80664 0.927734 3.32031l-1.46484 6.64062 6.73828 6.68945 4.39453-0.244141c1.12305-0.0488281 1.51367 0.0488281 2.34375 0.878906l2.53906 2.49023-10.8398 10.8398-2.49023-2.49023c-0.830078-0.878906-0.976562-1.2207-0.927734-2.39258l0.292969-4.3457-6.68945-6.73828-6.83594 1.17188c-1.41602 0.292969-2.05078 0.195312-3.17383-0.878906l-8.93555-8.88672c-1.07422-1.02539-1.17188-1.70898-0.488281-3.36914l4.58984-11.4746c-6.10352-6.34766-17.041-7.51953-25.5859-4.58984-0.683594 0.244141-0.927734-0.390625-0.390625-0.78125Z"/>
  </g>
  <text style="stroke:none;fill:black;font-family:sans-serif;font-size:13;font-weight:bold;" transform="matrix(1 0 0 1 1289 1953)">Exporting</text>
  <text style="stroke:none;fill:black;font-family:sans-serif;font-size:13;" transform="matrix(1 0 0 1 1289 1971)">Symbols should be outlined when exporting to ensure the</text>
  <text style="stroke:none;fill:black;font-family:sans-serif;font-size:13;" transform="matrix(1 0 0 1 1289 1989)">design is preserved when submitting to Xcode.</text>
  <text id="template-version" style="stroke:none;fill:black;font-family:sans-serif;font-size:13;text-anchor:end;" transform="matrix(1 0 0 1 3036 1933)">Template v.7.0</text>
  <text style="stroke:none;fill:black;font-family:sans-serif;font-size:13;text-anchor:end;" transform="matrix(1 0 0 1 3036 1951)">Requires Xcode 26 or greater</text>
  <text id="descriptive-name" style="stroke:none;fill:black;font-family:sans-serif;font-size:13;text-anchor:end;" transform="matrix(1 0 0 1 3036 1969)">Generated from camera.blueberry</text>
  <text style="stroke:none;fill:black;font-family:sans-serif;font-size:13;text-anchor:end;" transform="matrix(1 0 0 1 3036 1987)">Typeset at 100.0 points</text>
  <text style="stroke:none;fill:black;font-family:sans-serif;font-size:13;" transform="matrix(1 0 0 1 263 726)">Small</text>
  <text style="stroke:none;fill:black;font-family:sans-serif;font-size:13;" transform="matrix(1 0 0 1 263 1156)">Medium</text>
  <text style="stroke:none;fill:black;font-family:sans-serif;font-size:13;" transform="matrix(1 0 0 1 263 1586)">Large</text>
 </g>
 <g id="Guides">
  <g id="H-reference" style="fill:#27AAE1;stroke:none;" transform="matrix(1 0 0 1 339 696)">
   <path d="M0.993654 0L3.63775 0L29.3281-67.1323L30.0303-67.1323L30.0303-70.459L28.1226-70.459ZM11.6885-24.4799L46.9815-24.4799L46.2315-26.7285L12.4385-26.7285ZM55.1196 0L57.7637 0L30.6382-70.459L29.4326-70.459L29.4326-67.1323Z"/>
  </g>
  <line id="Baseline-S" style="fill:none;stroke:#27AAE1;opacity:1;stroke-width:0.5;" x1="263" x2="3036" y1="696" y2="696"/>
  <line id="Capline-S" style="fill:none;stroke:#27AAE1;opacity:1;stroke-width:0.5;" x1="263" x2="3036" y1="625.541" y2="625.541"/>
  <g id="H-reference" style="fill:#27AAE1;stroke:none;" transform="matrix(1 0 0 1 339 1126)">
   <path d="M0.993654 0L3.63775 0L29.3281-67.1323L30.0303-67.1323L30.0303-70.459L28.1226-70.459ZM11.6885-24.4799L46.9815-24.4799L46.2315-26.7285L12.4385-26.7285ZM55.1196 0L57.7637 0L30.6382-70.459L29.4326-70.459L29.4326-67.1323Z"/>
  </g>
  <line id="Baseline-M" style="fill:none;stroke:#27AAE1;opacity:1;stroke-width:0.5;" x1="263" x2="3036" y1="1126" y2="1126"/>
  <line id="Capline-M" style="fill:none;stroke:#27AAE1;opacity:1;stroke-width:0.5;" x1="263" x2="3036" y1="1055.54" y2="1055.54"/>
  <g id="H-reference" style="fill:#27AAE1;stroke:none;" transform="matrix(1 0 0 1 339 1556)">
   <path d="M0.993654 0L3.63775 0L29.3281-67.1323L30.0303-67.1323L30.0303-70.459L28.1226-70.459ZM11.6885-24.4799L46.9815-24.4799L46.2315-26.7285L12.4385-26.7285ZM55.1196 0L57.7637 0L30.6382-70.459L29.4326-70.459L29.4326-67.1323Z"/>
  </g>
  <line id="Baseline-L" style="fill:none;stroke:#27AAE1;opacity:1;stroke-width:0.5;" x1="263" x2="3036" y1="1556" y2="1556"/>
  <line id="Capline-L" style="fill:none;stroke:#27AAE1;opacity:1;stroke-width:0.5;" x1="263" x2="3036" y1="1485.54" y2="1485.54"/>
  <line id="right-margin-Black-S" style="fill:none;stroke:#FF3B30;stroke-width:0.5;opacity:1.0;" x1="2973.86" x2="2973.86" y1="600.785" y2="720.121"/>
  <line id="left-margin-Black-S" style="fill:none;stroke:#FF3B30;stroke-width:0.5;opacity:1.0;" x1="2892.94" x2="2892.94" y1="600.785" y2="720.121"/>
  <line id="right-margin-Regular-S" style="fill:none;stroke:#FF3B30;stroke-width:0.5;opacity:1.0;" x1="1490.3" x2="1490.3" y1="600.785" y2="720.121"/>
  <line id="left-margin-Regular-S" style="fill:none;stroke:#FF3B30;stroke-width:0.5;opacity:1.0;" x1="1409.39" x2="1409.39" y1="600.785" y2="720.121"/>
  <line id="right-margin-Ultralight-S" style="fill:none;stroke:#FF3B30;stroke-width:0.5;opacity:1.0;" x1="600.17" x2="600.17" y1="600.785" y2="720.121"/>
  <line id="left-margin-Ultralight-S" style="fill:none;stroke:#FF3B30;stroke-width:0.5;opacity:1.0;" x1="519.253" x2="519.253" y1="600.785" y2="720.121"/>
 </g>
 <g id="Symbols">
  <g id="Black-S" transform="matrix(1 0 0 1 2892.94 696)">
   <path class="monochrome-0 multicolor-0:tintColor hierarchical-0:primary SFSymbolsPreviewWireframe" d="M68.3463-44.6828C66.0571-44.6828 64.2256-46.5559 64.2256-48.8036C64.2256-51.0929 66.0571-52.966 68.3463-52.966C70.6357-52.966 72.4671-51.0929 72.4671-48.8036C72.4671-46.5559 70.6357-44.6828 68.3463-44.6828ZM10.6141-7.4712C30.5103-7.4712 50.4064-7.4712 70.3026-7.4712C77.3786-7.4712 80.9172-10.9676 80.9172-17.9604C80.9172-29.3098 80.9172-40.6593 80.9172-52.0087C80.9172-59.0015 77.3786-62.4562 70.3026-62.4562C67.2363-62.4562 64.1701-62.4562 61.1038-62.4562C58.5647-62.4562 57.7739-63.0806 56.3587-64.6207C55.5123-65.578 54.666-66.5354 53.8196-67.4927C52.1963-69.2409 50.4481-70.3231 47.0349-70.3231C42.6367-70.3231 38.2384-70.3231 33.8402-70.3231C30.3854-70.3231 28.6372-69.2409 27.0555-67.4927C26.1953-66.5354 25.3351-65.578 24.4749-64.6207C23.1012-63.0806 22.2688-62.4562 19.7713-62.4562C16.7189-62.4562 13.6665-62.4562 10.6141-62.4562C3.53802-62.4562 0-59.0015 0-52.0087C0-40.6593 0-29.3098 0-17.9604C0-10.9676 3.53802-7.4712 10.6141-7.4712ZM40.4584-17.4609C30.6351-17.4609 22.7266-25.3277 22.7266-35.1926C22.7266-45.0991 30.6351-52.966 40.4584-52.966C50.2816-52.966 58.1485-45.0991 58.1485-35.1926C58.1485-25.3277 50.2816-17.4609 40.4584-17.4609ZM40.4584-23.0801C47.1598-23.0801 52.5709-28.4496 52.5709-35.1926C52.5709-41.9357 47.1598-47.3468 40.4584-47.3468C33.7569-47.3468 28.3043-41.9357 28.3043-35.1926C28.3043-28.4496 33.7986-23.0801 40.4584-23.0801ZM4.28721-75.984C7.38127-73.4033 10.4753-70.8226 13.5694-68.2419C14.277-67.7009 14.9846-67.243 15.7754-67.243C16.6078-67.243 17.3155-67.7009 17.9815-68.2419C21.0755-70.8226 24.1696-73.4033 27.2636-75.984C30.3021-78.5231 26.7641-83.3098 23.3093-80.2296C20.798-77.9958 18.2867-75.762 15.7754-73.5282C13.278-75.762 10.7805-77.9958 8.2831-80.2296C4.78675-83.3098 1.24872-78.5231 4.28721-75.984Z"/>
   <path class="monochrome-1 multicolor-1:tintColor hierarchical-1:secondary SFSymbolsPreviewWireframe" d="M28.4011-27.9056C28.0291-27.9071 27.6646-27.9009 27.3112-27.8873C24.4839-27.7786 22.3577-27.1987 20.4124-26.2562C18.4671-25.3138 16.703-24.009 15.4827-22.68C14.2624-21.3509 13.5858-19.9976 13.3441-18.1852C13.1025-16.3728 13.2958-14.1015 13.9362-12.3857C14.1317-11.8621 14.3765-11.3938 14.6755-10.9507C15.3316-12.1231 16.0863-13.1949 16.8927-14.118C19.6881-17.3178 23.0975-18.7073 26.2154-19.2082C26.9947-19.3334 27.7634-19.4057 28.5193-19.4252C30.7865-19.4836 32.9386-19.0641 34.9041-18.1892C36.8266-17.3334 38.5951-16.0147 40.0378-14.1087C40.1297-14.3186 40.2225-14.5273 40.3207-14.726C41.0119-16.1238 41.8716-17.1803 42.8209-18.003C42.607-19.3198 42.1558-20.6879 41.4233-21.9911C40.3842-23.8397 38.7896-25.5552 36.2281-26.5944C33.9868-27.5036 31.0055-27.8948 28.4011-27.9056ZM50.2829-19.6697C48.3436-19.6595 46.7788-19.2169 45.3621-18.4874C43.743-17.6537 42.3173-16.4454 41.2419-14.2705C41.0621-13.9067 40.896-13.5084 40.7363-13.0969C40.9954-12.6856 41.2426-12.2537 41.4732-11.7949C43.0844-8.5895 44.0247-4.2381 43.3131-0.2403C43.0457 1.2622 42.5342 2.7 41.7803 4.0259C42.3919 4.7318 43.1104 5.3813 43.9606 5.9671C45.9422 7.3324 48.6003 8.3716 51.5001 8.6132C54.3998 8.8548 57.5411 8.299 59.9938 6.9337C62.4465 5.5684 64.2105 3.3938 65.1529 1.0499C66.0953-1.2941 66.2161-3.8072 65.7691-6.1995C65.3221-8.5918 64.3071-10.8633 63.1231-12.8206C61.939-14.778 60.5859-16.4211 58.4715-17.6053C56.3571-18.7894 53.4816-19.5143 51.1376-19.6473C50.8446-19.6639 50.5599-19.6712 50.2829-19.6697ZM28.5435-18.4839C27.8313-18.4655 27.1046-18.3972 26.3648-18.2784C23.4058-17.803 20.2387-16.5167 17.602-13.4984C14.9652-10.4801 12.8592-5.7302 13.4248-1.113C13.9903 3.5041 17.2272 7.9885 21.6463 9.7928C26.0654 11.5971 31.6661 10.7214 35.5802 8.6541C39.4943 6.5869 41.7215 3.3281 42.386-0.4053C43.0506-4.1387 42.1524-8.3467 40.6318-11.372C39.1112-14.3973 36.9682-16.2396 34.5213-17.3288C32.6861-18.1457 30.6801-18.5389 28.5435-18.4839Z"/>
   <path class="monochrome-2 multicolor-2:tintColor hierarchical-2:tertiary SFSymbolsPreviewWireframe" d="M43.5282-39.5418C42.2516-39.5114 40.6756-38.5047 39.2484-37.0095C37.726-35.4146 36.3728-33.264 35.4425-31.3066C34.9442-30.2582 34.5712-29.2651 34.3137-28.2701C35.1177-28.0767 35.8939-27.8387 36.6143-27.5464C39.4031-26.415 41.193-24.498 42.3191-22.4946C43.0129-21.2601 43.477-19.9737 43.7385-18.7114C44.115-18.9679 44.4997-19.1992 44.8917-19.4011C46.4318-20.1941 48.1847-20.6863 50.2774-20.6973C50.5762-20.6989 50.8821-20.691 51.1957-20.6732C53.7031-20.531 56.6686-19.7925 58.9735-18.5017C61.0085-17.3621 62.4089-15.8075 63.5569-14.0579C64.9655-15.5344 66.0432-17.2482 66.8444-18.8982C67.8593-20.9884 68.4391-22.9698 68.6928-24.2747C68.9466-25.5796 68.8741-26.2077 67.7022-26.679C66.5302-27.1502 64.259-27.4644 61.6492-27.4765C59.0394-27.4886 56.0914-27.1986 53.252-26.1112C52.4295-25.7963 51.6169-25.4124 50.8277-24.9684C50.5648-26.7891 50.1393-28.6652 49.603-30.3883C48.866-32.7565 47.9235-34.8346 46.9811-36.502C46.0387-38.1693 45.0963-39.4258 43.7793-39.5347C43.6969-39.5415 43.6133-39.5438 43.5282-39.5418Z"/>
   <path class="monochrome-3 multicolor-3:tintColor hierarchical-3:primary SFSymbolsPreviewWireframe" d="M28.6152-15.3855C28.059-15.3625 27.3792-14.9367 26.7313-14.3673C25.9338-13.6665 25.1846-12.7482 24.6168-12.4582C24.049-12.1681 23.6625-12.5066 22.8892-12.5912C22.116-12.6759 20.9559-12.5067 20.3639-12.0113C19.7718-11.5159 19.7477-10.6942 19.8685-10.0176C19.9894-9.3409 20.2551-8.8093 20.2188-8.1569C20.1825-7.5045 19.8443-6.7314 19.5785-5.8131C19.3126-4.8948 19.1194-3.8315 19.4819-3.2757C19.8444-2.72 20.7627-2.6716 21.4876-2.6958C22.2125-2.72 22.744-2.8167 23.1065-2.3938C23.4689-1.9708 23.6624-1.0284 23.9282-0.2431C24.194 0.5423 24.5324 1.1706 25.1848 1.1101C25.8372 1.0496 26.8038 0.3006 27.4562-0.1948C28.1087-0.6902 28.4469-0.9318 28.894-0.968C29.3411-1.0042 29.8969-0.8351 30.5735-0.7988C31.2501-0.7626 32.0476-0.8594 32.41-1.3063C32.7724-1.7533 32.6998-2.5506 32.6031-3.2514C32.5065-3.9522 32.3857-4.5563 32.6394-5.2693C32.8931-5.9822 33.5215-6.8037 34.0652-7.6011C34.6089-8.3986 35.0679-9.1719 34.8989-9.6673C34.7298-10.1626 33.9324-10.38 33.1832-10.4646C32.4341-10.5492 31.7334-10.501 31.2621-10.948C30.7909-11.395 30.5492-12.3374 30.2471-13.2677C29.9451-14.198 29.5827-15.1163 28.9785-15.3338C28.8653-15.3746 28.7436-15.3908 28.6152-15.3855ZM26.5743-11.5038C27.7221-11.5158 28.9787-11.2017 29.8607-10.6579C30.7427-10.1142 31.25-9.341 31.5278-8.4952C31.8057-7.6495 31.8541-6.7312 31.6124-5.8855C31.3708-5.0398 30.8392-4.2665 30.0418-3.6382C29.2444-3.0099 28.1811-2.5268 27.1542-2.4301C26.1272-2.3334 25.1364-2.6234 24.3994-3.0583C23.6624-3.4932 23.1792-4.0731 22.7683-4.8222C22.3575-5.5713 22.0193-6.4895 22.128-7.5165C22.2367-8.5436 22.7924-9.6793 23.5899-10.4164C24.3873-11.1534 25.4264-11.4917 26.5743-11.5038ZM58.3386-10.7426C57.5653-10.8876 56.4779-10.8876 56.1516-10.1747C55.8254-9.4617 56.2603-8.0361 56.8645-7.0695C57.4687-6.1029 58.2419-5.5955 58.9547-5.668C59.6675-5.7406 60.3199-6.393 60.4891-7.2145C60.6583-8.0361 60.3441-9.0268 59.9575-9.6672C59.5709-10.3076 59.1118-10.5975 58.3386-10.7426ZM30.5389-29.2629C30.2889-29.2648 30.0237-29.236 29.7518-29.168C29.0268-28.9868 28.2536-28.5277 27.6495-28.4189C27.0455-28.3102 26.6106-28.5517 25.9098-28.6605C25.209-28.7693 24.2423-28.7452 23.1428-28.4311C22.0433-28.117 20.811-27.5128 20.4848-27.2228C20.1586-26.9328 20.7386-26.9571 21.1615-26.9571C21.5843-26.9571 21.85-26.9328 21.6929-26.7274C21.5358-26.5221 20.9558-26.1355 20.6296-25.7005C20.3034-25.2654 20.2308-24.7821 20.6296-24.7217C21.0283-24.6614 21.8983-25.0238 22.6716-25.2775C23.4449-25.5313 24.1215-25.6763 24.6773-25.6159C25.2331-25.5554 25.6681-25.2896 26.381-24.8909C27.0938-24.4922 28.0845-23.9605 28.8094-23.9363C29.5343-23.9122 29.9933-24.3955 30.5491-24.8546C31.105-25.3137 31.7575-25.7487 32.4946-25.942C33.2317-26.1353 34.0532-26.0871 34.766-26.208C35.4789-26.3288 36.083-26.6187 35.938-26.969C35.7931-27.3194 34.899-27.7301 34.2224-27.9356C33.5458-28.141 33.0867-28.1411 32.7242-28.3102C32.3617-28.4793 32.0958-28.8176 31.6246-29.0352C31.3301-29.1711 30.9555-29.2597 30.5389-29.2629ZM28.7934-27.1317C29.5787-27.1363 30.3757-27.0809 30.6822-26.9329C31.0326-26.7638 30.7425-26.4736 30.1384-26.2441C29.5343-26.0145 28.6161-25.8455 27.7341-25.8938C26.8521-25.9421 26.0064-26.2078 25.7284-26.4132C25.4505-26.6187 25.7406-26.7636 26.2722-26.8844C26.8039-27.0053 27.5771-27.1021 28.4591-27.1262C28.5693-27.1293 28.6812-27.131 28.7934-27.1317Z"/>
  </g>
  <g id="Regular-S" transform="matrix(1 0 0 1 1409.39 696)">
   <path class="monochrome-0 multicolor-0:tintColor hierarchical-0:primary SFSymbolsPreviewWireframe" d="M68.3463-44.6828C66.0571-44.6828 64.2256-46.5559 64.2256-48.8036C64.2256-51.0929 66.0571-52.966 68.3463-52.966C70.6357-52.966 72.4671-51.0929 72.4671-48.8036C72.4671-46.5559 70.6357-44.6828 68.3463-44.6828ZM10.6141-7.4712C30.5103-7.4712 50.4064-7.4712 70.3026-7.4712C77.3786-7.4712 80.9172-10.9676 80.9172-17.9604C80.9172-29.3098 80.9172-40.6593 80.9172-52.0087C80.9172-59.0015 77.3786-62.4562 70.3026-62.4562C67.2363-62.4562 64.1701-62.4562 61.1038-62.4562C58.5647-62.4562 57.7739-63.0806 56.3587-64.6207C55.5123-65.578 54.666-66.5354 53.8196-67.4927C52.1963-69.2409 50.4481-70.3231 47.0349-70.3231C42.6367-70.3231 38.2384-70.3231 33.8402-70.3231C30.3854-70.3231 28.6372-69.2409 27.0555-67.4927C26.1953-66.5354 25.3351-65.578 24.4749-64.6207C23.1012-63.0806 22.2688-62.4562 19.7713-62.4562C16.7189-62.4562 13.6665-62.4562 10.6141-62.4562C3.53802-62.4562 0-59.0015 0-52.0087C0-40.6593 0-29.3098 0-17.9604C0-10.9676 3.53802-7.4712 10.6141-7.4712ZM40.4584-17.4609C30.6351-17.4609 22.7266-25.3277 22.7266-35.1926C22.7266-45.0991 30.6351-52.966 40.4584-52.966C50.2816-52.966 58.1485-45.0991 58.1485-35.1926C58.1485-25.3277 50.2816-17.4609 40.4584-17.4609ZM40.4584-23.0801C47.1598-23.0801 52.5709-28.4496 52.5709-35.1926C52.5709-41.9357 47.1598-47.3468 40.4584-47.3468C33.7569-47.3468 28.3043-41.9357 28.3043-35.1926C28.3043-28.4496 33.7986-23.0801 40.4584-23.0801ZM4.28721-75.984C7.38127-73.4033 10.4753-70.8226 13.5694-68.2419C14.277-67.7009 14.9846-67.243 15.7754-67.243C16.6078-67.243 17.3155-67.7009 17.9815-68.2419C21.0755-70.8226 24.1696-73.4033 27.2636-75.984C30.3021-78.5231 26.7641-83.3098 23.3093-80.2296C20.798-77.9958 18.2867-75.762 15.7754-73.5282C13.278-75.762 10.7805-77.9958 8.2831-80.2296C4.78675-83.3098 1.24872-78.5231 4.28721-75.984Z"/>
   <path class="monochrome-1 multicolor-1:tintColor hierarchical-1:secondary SFSymbolsPreviewWireframe" d="M28.4011-27.9056C28.0291-27.9071 27.6646-27.9009 27.3112-27.8873C24.4839-27.7786 22.3577-27.1987 20.4124-26.2562C18.4671-25.3138 16.703-24.009 15.4827-22.68C14.2624-21.3509 13.5858-19.9976 13.3441-18.1852C13.1025-16.3728 13.2958-14.1015 13.9362-12.3857C14.1317-11.8621 14.3765-11.3938 14.6755-10.9507C15.3316-12.1231 16.0863-13.1949 16.8927-14.118C19.6881-17.3178 23.0975-18.7073 26.2154-19.2082C26.9947-19.3334 27.7634-19.4057 28.5193-19.4252C30.7865-19.4836 32.9386-19.0641 34.9041-18.1892C36.8266-17.3334 38.5951-16.0147 40.0378-14.1087C40.1297-14.3186 40.2225-14.5273 40.3207-14.726C41.0119-16.1238 41.8716-17.1803 42.8209-18.003C42.607-19.3198 42.1558-20.6879 41.4233-21.9911C40.3842-23.8397 38.7896-25.5552 36.2281-26.5944C33.9868-27.5036 31.0055-27.8948 28.4011-27.9056ZM50.2829-19.6697C48.3436-19.6595 46.7788-19.2169 45.3621-18.4874C43.743-17.6537 42.3173-16.4454 41.2419-14.2705C41.0621-13.9067 40.896-13.5084 40.7363-13.0969C40.9954-12.6856 41.2426-12.2537 41.4732-11.7949C43.0844-8.5895 44.0247-4.2381 43.3131-0.2403C43.0457 1.2622 42.5342 2.7 41.7803 4.0259C42.3919 4.7318 43.1104 5.3813 43.9606 5.9671C45.9422 7.3324 48.6003 8.3716 51.5001 8.6132C54.3998 8.8548 57.5411 8.299 59.9938 6.9337C62.4465 5.5684 64.2105 3.3938 65.1529 1.0499C66.0953-1.2941 66.2161-3.8072 65.7691-6.1995C65.3221-8.5918 64.3071-10.8633 63.1231-12.8206C61.939-14.778 60.5859-16.4211 58.4715-17.6053C56.3571-18.7894 53.4816-19.5143 51.1376-19.6473C50.8446-19.6639 50.5599-19.6712 50.2829-19.6697ZM28.5435-18.4839C27.8313-18.4655 27.1046-18.3972 26.3648-18.2784C23.4058-17.803 20.2387-16.5167 17.602-13.4984C14.9652-10.4801 12.8592-5.7302 13.4248-1.113C13.9903 3.5041 17.2272 7.9885 21.6463 9.7928C26.0654 11.5971 31.6661 10.7214 35.5802 8.6541C39.4943 6.5869 41.7215 3.3281 42.386-0.4053C43.0506-4.1387 42.1524-8.3467 40.6318-11.372C39.1112-14.3973 36.9682-16.2396 34.5213-17.3288C32.6861-18.1457 30.6801-18.5389 28.5435-18.4839Z"/>
   <path class="monochrome-2 multicolor-2:tintColor hierarchical-2:tertiary SFSymbolsPreviewWireframe" d="M43.5282-39.5418C42.2516-39.5114 40.6756-38.5047 39.2484-37.0095C37.726-35.4146 36.3728-33.264 35.4425-31.3066C34.9442-30.2582 34.5712-29.2651 34.3137-28.2701C35.1177-28.0767 35.8939-27.8387 36.6143-27.5464C39.4031-26.415 41.193-24.498 42.3191-22.4946C43.0129-21.2601 43.477-19.9737 43.7385-18.7114C44.115-18.9679 44.4997-19.1992 44.8917-19.4011C46.4318-20.1941 48.1847-20.6863 50.2774-20.6973C50.5762-20.6989 50.8821-20.691 51.1957-20.6732C53.7031-20.531 56.6686-19.7925 58.9735-18.5017C61.0085-17.3621 62.4089-15.8075 63.5569-14.0579C64.9655-15.5344 66.0432-17.2482 66.8444-18.8982C67.8593-20.9884 68.4391-22.9698 68.6928-24.2747C68.9466-25.5796 68.8741-26.2077 67.7022-26.679C66.5302-27.1502 64.259-27.4644 61.6492-27.4765C59.0394-27.4886 56.0914-27.1986 53.252-26.1112C52.4295-25.7963 51.6169-25.4124 50.8277-24.9684C50.5648-26.7891 50.1393-28.6652 49.603-30.3883C48.866-32.7565 47.9235-34.8346 46.9811-36.502C46.0387-38.1693 45.0963-39.4258 43.7793-39.5347C43.6969-39.5415 43.6133-39.5438 43.5282-39.5418Z"/>
   <path class="monochrome-3 multicolor-3:tintColor hierarchical-3:primary SFSymbolsPreviewWireframe" d="M28.6152-15.3855C28.059-15.3625 27.3792-14.9367 26.7313-14.3673C25.9338-13.6665 25.1846-12.7482 24.6168-12.4582C24.049-12.1681 23.6625-12.5066 22.8892-12.5912C22.116-12.6759 20.9559-12.5067 20.3639-12.0113C19.7718-11.5159 19.7477-10.6942 19.8685-10.0176C19.9894-9.3409 20.2551-8.8093 20.2188-8.1569C20.1825-7.5045 19.8443-6.7314 19.5785-5.8131C19.3126-4.8948 19.1194-3.8315 19.4819-3.2757C19.8444-2.72 20.7627-2.6716 21.4876-2.6958C22.2125-2.72 22.744-2.8167 23.1065-2.3938C23.4689-1.9708 23.6624-1.0284 23.9282-0.2431C24.194 0.5423 24.5324 1.1706 25.1848 1.1101C25.8372 1.0496 26.8038 0.3006 27.4562-0.1948C28.1087-0.6902 28.4469-0.9318 28.894-0.968C29.3411-1.0042 29.8969-0.8351 30.5735-0.7988C31.2501-0.7626 32.0476-0.8594 32.41-1.3063C32.7724-1.7533 32.6998-2.5506 32.6031-3.2514C32.5065-3.9522 32.3857-4.5563 32.6394-5.2693C32.8931-5.9822 33.5215-6.8037 34.0652-7.6011C34.6089-8.3986 35.0679-9.1719 34.8989-9.6673C34.7298-10.1626 33.9324-10.38 33.1832-10.4646C32.4341-10.5492 31.7334-10.501 31.2621-10.948C30.7909-11.395 30.5492-12.3374 30.2471-13.2677C29.9451-14.198 29.5827-15.1163 28.9785-15.3338C28.8653-15.3746 28.7436-15.3908 28.6152-15.3855ZM26.5743-11.5038C27.7221-11.5158 28.9787-11.2017 29.8607-10.6579C30.7427-10.1142 31.25-9.341 31.5278-8.4952C31.8057-7.6495 31.8541-6.7312 31.6124-5.8855C31.3708-5.0398 30.8392-4.2665 30.0418-3.6382C29.2444-3.0099 28.1811-2.5268 27.1542-2.4301C26.1272-2.3334 25.1364-2.6234 24.3994-3.0583C23.6624-3.4932 23.1792-4.0731 22.7683-4.8222C22.3575-5.5713 22.0193-6.4895 22.128-7.5165C22.2367-8.5436 22.7924-9.6793 23.5899-10.4164C24.3873-11.1534 25.4264-11.4917 26.5743-11.5038ZM58.3386-10.7426C57.5653-10.8876 56.4779-10.8876 56.1516-10.1747C55.8254-9.4617 56.2603-8.0361 56.8645-7.0695C57.4687-6.1029 58.2419-5.5955 58.9547-5.668C59.6675-5.7406 60.3199-6.393 60.4891-7.2145C60.6583-8.0361 60.3441-9.0268 59.9575-9.6672C59.5709-10.3076 59.1118-10.5975 58.3386-10.7426ZM30.5389-29.2629C30.2889-29.2648 30.0237-29.236 29.7518-29.168C29.0268-28.9868 28.2536-28.5277 27.6495-28.4189C27.0455-28.3102 26.6106-28.5517 25.9098-28.6605C25.209-28.7693 24.2423-28.7452 23.1428-28.4311C22.0433-28.117 20.811-27.5128 20.4848-27.2228C20.1586-26.9328 20.7386-26.9571 21.1615-26.9571C21.5843-26.9571 21.85-26.9328 21.6929-26.7274C21.5358-26.5221 20.9558-26.1355 20.6296-25.7005C20.3034-25.2654 20.2308-24.7821 20.6296-24.7217C21.0283-24.6614 21.8983-25.0238 22.6716-25.2775C23.4449-25.5313 24.1215-25.6763 24.6773-25.6159C25.2331-25.5554 25.6681-25.2896 26.381-24.8909C27.0938-24.4922 28.0845-23.9605 28.8094-23.9363C29.5343-23.9122 29.9933-24.3955 30.5491-24.8546C31.105-25.3137 31.7575-25.7487 32.4946-25.942C33.2317-26.1353 34.0532-26.0871 34.766-26.208C35.4789-26.3288 36.083-26.6187 35.938-26.969C35.7931-27.3194 34.899-27.7301 34.2224-27.9356C33.5458-28.141 33.0867-28.1411 32.7242-28.3102C32.3617-28.4793 32.0958-28.8176 31.6246-29.0352C31.3301-29.1711 30.9555-29.2597 30.5389-29.2629ZM28.7934-27.1317C29.5787-27.1363 30.3757-27.0809 30.6822-26.9329C31.0326-26.7638 30.7425-26.4736 30.1384-26.2441C29.5343-26.0145 28.6161-25.8455 27.7341-25.8938C26.8521-25.9421 26.0064-26.2078 25.7284-26.4132C25.4505-26.6187 25.7406-26.7636 26.2722-26.8844C26.8039-27.0053 27.5771-27.1021 28.4591-27.1262C28.5693-27.1293 28.6812-27.131 28.7934-27.1317Z"/>
  </g>
  <g id="Ultralight-S" transform="matrix(1 0 0 1 519.253 696)">
   <path class="monochrome-0 multicolor-0:tintColor hierarchical-0:primary SFSymbolsPreviewWireframe" d="M68.3463-44.6828C66.0571-44.6828 64.2256-46.5559 64.2256-48.8036C64.2256-51.0929 66.0571-52.966 68.3463-52.966C70.6357-52.966 72.4671-51.0929 72.4671-48.8036C72.4671-46.5559 70.6357-44.6828 68.3463-44.6828ZM10.6141-7.4712C30.5103-7.4712 50.4064-7.4712 70.3026-7.4712C77.3786-7.4712 80.9172-10.9676 80.9172-17.9604C80.9172-29.3098 80.9172-40.6593 80.9172-52.0087C80.9172-59.0015 77.3786-62.4562 70.3026-62.4562C67.2363-62.4562 64.1701-62.4562 61.1038-62.4562C58.5647-62.4562 57.7739-63.0806 56.3587-64.6207C55.5123-65.578 54.666-66.5354 53.8196-67.4927C52.1963-69.2409 50.4481-70.3231 47.0349-70.3231C42.6367-70.3231 38.2384-70.3231 33.8402-70.3231C30.3854-70.3231 28.6372-69.2409 27.0555-67.4927C26.1953-66.5354 25.3351-65.578 24.4749-64.6207C23.1012-63.0806 22.2688-62.4562 19.7713-62.4562C16.7189-62.4562 13.6665-62.4562 10.6141-62.4562C3.53802-62.4562 0-59.0015 0-52.0087C0-40.6593 0-29.3098 0-17.9604C0-10.9676 3.53802-7.4712 10.6141-7.4712ZM40.4584-17.4609C30.6351-17.4609 22.7266-25.3277 22.7266-35.1926C22.7266-45.0991 30.6351-52.966 40.4584-52.966C50.2816-52.966 58.1485-45.0991 58.1485-35.1926C58.1485-25.3277 50.2816-17.4609 40.4584-17.4609ZM40.4584-23.0801C47.1598-23.0801 52.5709-28.4496 52.5709-35.1926C52.5709-41.9357 47.1598-47.3468 40.4584-47.3468C33.7569-47.3468 28.3043-41.9357 28.3043-35.1926C28.3043-28.4496 33.7986-23.0801 40.4584-23.0801ZM4.28721-75.984C7.38127-73.4033 10.4753-70.8226 13.5694-68.2419C14.277-67.7009 14.9846-67.243 15.7754-67.243C16.6078-67.243 17.3155-67.7009 17.9815-68.2419C21.0755-70.8226 24.1696-73.4033 27.2636-75.984C30.3021-78.5231 26.7641-83.3098 23.3093-80.2296C20.798-77.9958 18.2867-75.762 15.7754-73.5282C13.278-75.762 10.7805-77.9958 8.2831-80.2296C4.78675-83.3098 1.24872-78.5231 4.28721-75.984Z"/>
   <path class="monochrome-1 multicolor-1:tintColor hierarchical-1:secondary SFSymbolsPreviewWireframe" d="M28.4011-27.9056C28.0291-27.9071 27.6646-27.9009 27.3112-27.8873C24.4839-27.7786 22.3577-27.1987 20.4124-26.2562C18.4671-25.3138 16.703-24.009 15.4827-22.68C14.2624-21.3509 13.5858-19.9976 13.3441-18.1852C13.1025-16.3728 13.2958-14.1015 13.9362-12.3857C14.1317-11.8621 14.3765-11.3938 14.6755-10.9507C15.3316-12.1231 16.0863-13.1949 16.8927-14.118C19.6881-17.3178 23.0975-18.7073 26.2154-19.2082C26.9947-19.3334 27.7634-19.4057 28.5193-19.4252C30.7865-19.4836 32.9386-19.0641 34.9041-18.1892C36.8266-17.3334 38.5951-16.0147 40.0378-14.1087C40.1297-14.3186 40.2225-14.5273 40.3207-14.726C41.0119-16.1238 41.8716-17.1803 42.8209-18.003C42.607-19.3198 42.1558-20.6879 41.4233-21.9911C40.3842-23.8397 38.7896-25.5552 36.2281-26.5944C33.9868-27.5036 31.0055-27.8948 28.4011-27.9056ZM50.2829-19.6697C48.3436-19.6595 46.7788-19.2169 45.3621-18.4874C43.743-17.6537 42.3173-16.4454 41.2419-14.2705C41.0621-13.9067 40.896-13.5084 40.7363-13.0969C40.9954-12.6856 41.2426-12.2537 41.4732-11.7949C43.0844-8.5895 44.0247-4.2381 43.3131-0.2403C43.0457 1.2622 42.5342 2.7 41.7803 4.0259C42.3919 4.7318 43.1104 5.3813 43.9606 5.9671C45.9422 7.3324 48.6003 8.3716 51.5001 8.6132C54.3998 8.8548 57.5411 8.299 59.9938 6.9337C62.4465 5.5684 64.2105 3.3938 65.1529 1.0499C66.0953-1.2941 66.2161-3.8072 65.7691-6.1995C65.3221-8.5918 64.3071-10.8633 63.1231-12.8206C61.939-14.778 60.5859-16.4211 58.4715-17.6053C56.3571-18.7894 53.4816-19.5143 51.1376-19.6473C50.8446-19.6639 50.5599-19.6712 50.2829-19.6697ZM28.5435-18.4839C27.8313-18.4655 27.1046-18.3972 26.3648-18.2784C23.4058-17.803 20.2387-16.5167 17.602-13.4984C14.9652-10.4801 12.8592-5.7302 13.4248-1.113C13.9903 3.5041 17.2272 7.9885 21.6463 9.7928C26.0654 11.5971 31.6661 10.7214 35.5802 8.6541C39.4943 6.5869 41.7215 3.3281 42.386-0.4053C43.0506-4.1387 42.1524-8.3467 40.6318-11.372C39.1112-14.3973 36.9682-16.2396 34.5213-17.3288C32.6861-18.1457 30.6801-18.5389 28.5435-18.4839Z"/>
   <path class="monochrome-2 multicolor-2:tintColor hierarchical-2:tertiary SFSymbolsPreviewWireframe" d="M43.5282-39.5418C42.2516-39.5114 40.6756-38.5047 39.2484-37.0095C37.726-35.4146 36.3728-33.264 35.4425-31.3066C34.9442-30.2582 34.5712-29.2651 34.3137-28.2701C35.1177-28.0767 35.8939-27.8387 36.6143-27.5464C39.4031-26.415 41.193-24.498 42.3191-22.4946C43.0129-21.2601 43.477-19.9737 43.7385-18.7114C44.115-18.9679 44.4997-19.1992 44.8917-19.4011C46.4318-20.1941 48.1847-20.6863 50.2774-20.6973C50.5762-20.6989 50.8821-20.691 51.1957-20.6732C53.7031-20.531 56.6686-19.7925 58.9735-18.5017C61.0085-17.3621 62.4089-15.8075 63.5569-14.0579C64.9655-15.5344 66.0432-17.2482 66.8444-18.8982C67.8593-20.9884 68.4391-22.9698 68.6928-24.2747C68.9466-25.5796 68.8741-26.2077 67.7022-26.679C66.5302-27.1502 64.259-27.4644 61.6492-27.4765C59.0394-27.4886 56.0914-27.1986 53.252-26.1112C52.4295-25.7963 51.6169-25.4124 50.8277-24.9684C50.5648-26.7891 50.1393-28.6652 49.603-30.3883C48.866-32.7565 47.9235-34.8346 46.9811-36.502C46.0387-38.1693 45.0963-39.4258 43.7793-39.5347C43.6969-39.5415 43.6133-39.5438 43.5282-39.5418Z"/>
   <path class="monochrome-3 multicolor-3:tintColor hierarchical-3:primary SFSymbolsPreviewWireframe" d="M28.6152-15.3855C28.059-15.3625 27.3792-14.9367 26.7313-14.3673C25.9338-13.6665 25.1846-12.7482 24.6168-12.4582C24.049-12.1681 23.6625-12.5066 22.8892-12.5912C22.116-12.6759 20.9559-12.5067 20.3639-12.0113C19.7718-11.5159 19.7477-10.6942 19.8685-10.0176C19.9894-9.3409 20.2551-8.8093 20.2188-8.1569C20.1825-7.5045 19.8443-6.7314 19.5785-5.8131C19.3126-4.8948 19.1194-3.8315 19.4819-3.2757C19.8444-2.72 20.7627-2.6716 21.4876-2.6958C22.2125-2.72 22.744-2.8167 23.1065-2.3938C23.4689-1.9708 23.6624-1.0284 23.9282-0.2431C24.194 0.5423 24.5324 1.1706 25.1848 1.1101C25.8372 1.0496 26.8038 0.3006 27.4562-0.1948C28.1087-0.6902 28.4469-0.9318 28.894-0.968C29.3411-1.0042 29.8969-0.8351 30.5735-0.7988C31.2501-0.7626 32.0476-0.8594 32.41-1.3063C32.7724-1.7533 32.6998-2.5506 32.6031-3.2514C32.5065-3.9522 32.3857-4.5563 32.6394-5.2693C32.8931-5.9822 33.5215-6.8037 34.0652-7.6011C34.6089-8.3986 35.0679-9.1719 34.8989-9.6673C34.7298-10.1626 33.9324-10.38 33.1832-10.4646C32.4341-10.5492 31.7334-10.501 31.2621-10.948C30.7909-11.395 30.5492-12.3374 30.2471-13.2677C29.9451-14.198 29.5827-15.1163 28.9785-15.3338C28.8653-15.3746 28.7436-15.3908 28.6152-15.3855ZM26.5743-11.5038C27.7221-11.5158 28.9787-11.2017 29.8607-10.6579C30.7427-10.1142 31.25-9.341 31.5278-8.4952C31.8057-7.6495 31.8541-6.7312 31.6124-5.8855C31.3708-5.0398 30.8392-4.2665 30.0418-3.6382C29.2444-3.0099 28.1811-2.5268 27.1542-2.4301C26.1272-2.3334 25.1364-2.6234 24.3994-3.0583C23.6624-3.4932 23.1792-4.0731 22.7683-4.8222C22.3575-5.5713 22.0193-6.4895 22.128-7.5165C22.2367-8.5436 22.7924-9.6793 23.5899-10.4164C24.3873-11.1534 25.4264-11.4917 26.5743-11.5038ZM58.3386-10.7426C57.5653-10.8876 56.4779-10.8876 56.1516-10.1747C55.8254-9.4617 56.2603-8.0361 56.8645-7.0695C57.4687-6.1029 58.2419-5.5955 58.9547-5.668C59.6675-5.7406 60.3199-6.393 60.4891-7.2145C60.6583-8.0361 60.3441-9.0268 59.9575-9.6672C59.5709-10.3076 59.1118-10.5975 58.3386-10.7426ZM30.5389-29.2629C30.2889-29.2648 30.0237-29.236 29.7518-29.168C29.0268-28.9868 28.2536-28.5277 27.6495-28.4189C27.0455-28.3102 26.6106-28.5517 25.9098-28.6605C25.209-28.7693 24.2423-28.7452 23.1428-28.4311C22.0433-28.117 20.811-27.5128 20.4848-27.2228C20.1586-26.9328 20.7386-26.9571 21.1615-26.9571C21.5843-26.9571 21.85-26.9328 21.6929-26.7274C21.5358-26.5221 20.9558-26.1355 20.6296-25.7005C20.3034-25.2654 20.2308-24.7821 20.6296-24.7217C21.0283-24.6614 21.8983-25.0238 22.6716-25.2775C23.4449-25.5313 24.1215-25.6763 24.6773-25.6159C25.2331-25.5554 25.6681-25.2896 26.381-24.8909C27.0938-24.4922 28.0845-23.9605 28.8094-23.9363C29.5343-23.9122 29.9933-24.3955 30.5491-24.8546C31.105-25.3137 31.7575-25.7487 32.4946-25.942C33.2317-26.1353 34.0532-26.0871 34.766-26.208C35.4789-26.3288 36.083-26.6187 35.938-26.969C35.7931-27.3194 34.899-27.7301 34.2224-27.9356C33.5458-28.141 33.0867-28.1411 32.7242-28.3102C32.3617-28.4793 32.0958-28.8176 31.6246-29.0352C31.3301-29.1711 30.9555-29.2597 30.5389-29.2629ZM28.7934-27.1317C29.5787-27.1363 30.3757-27.0809 30.6822-26.9329C31.0326-26.7638 30.7425-26.4736 30.1384-26.2441C29.5343-26.0145 28.6161-25.8455 27.7341-25.8938C26.8521-25.9421 26.0064-26.2078 25.7284-26.4132C25.4505-26.6187 25.7406-26.7636 26.2722-26.8844C26.8039-27.0053 27.5771-27.1021 28.4591-27.1262C28.5693-27.1293 28.6812-27.131 28.7934-27.1317Z"/>
  </g>
 </g>
</svg>
